<mxfile host="app.diagrams.net" agent="Mozilla/5.0 (Windows NT 10.0; Win64; x64) AppleWebKit/537.36 (KHTML, like Gecko) Chrome/135.0.0.0 Safari/537.36" version="26.2.14">
  <diagram name="Page-1" id="iP6kQtvoa8H6n5uTDdC2">
    <mxGraphModel dx="2180" dy="1093" grid="1" gridSize="10" guides="1" tooltips="1" connect="1" arrows="1" fold="1" page="1" pageScale="1" pageWidth="850" pageHeight="1100" math="0" shadow="0">
      <root>
        <mxCell id="0" />
        <mxCell id="1" parent="0" />
        <mxCell id="btc_JdbEyAI99RgP4txK-1" style="edgeStyle=orthogonalEdgeStyle;rounded=0;orthogonalLoop=1;jettySize=auto;html=1;" edge="1" parent="1" source="btc_JdbEyAI99RgP4txK-2" target="btc_JdbEyAI99RgP4txK-19">
          <mxGeometry relative="1" as="geometry" />
        </mxCell>
        <mxCell id="btc_JdbEyAI99RgP4txK-2" value="" style="sketch=0;points=[[0,0,0],[0.25,0,0],[0.5,0,0],[0.75,0,0],[1,0,0],[0,1,0],[0.25,1,0],[0.5,1,0],[0.75,1,0],[1,1,0],[0,0.25,0],[0,0.5,0],[0,0.75,0],[1,0.25,0],[1,0.5,0],[1,0.75,0]];outlineConnect=0;fontColor=#232F3E;fillColor=#ED7100;strokeColor=#ffffff;dashed=0;verticalLabelPosition=bottom;verticalAlign=top;align=center;html=1;fontSize=12;fontStyle=0;aspect=fixed;shape=mxgraph.aws4.resourceIcon;resIcon=mxgraph.aws4.lambda;" vertex="1" parent="1">
          <mxGeometry x="643" y="486" width="64" height="64" as="geometry" />
        </mxCell>
        <mxCell id="btc_JdbEyAI99RgP4txK-3" style="edgeStyle=orthogonalEdgeStyle;rounded=0;orthogonalLoop=1;jettySize=auto;html=1;entryX=0;entryY=0.5;entryDx=0;entryDy=0;entryPerimeter=0;" edge="1" parent="1" source="btc_JdbEyAI99RgP4txK-31" target="btc_JdbEyAI99RgP4txK-2">
          <mxGeometry relative="1" as="geometry" />
        </mxCell>
        <mxCell id="btc_JdbEyAI99RgP4txK-4" style="edgeStyle=orthogonalEdgeStyle;rounded=0;orthogonalLoop=1;jettySize=auto;html=1;entryX=1;entryY=0.5;entryDx=0;entryDy=0;entryPerimeter=0;" edge="1" parent="1" source="btc_JdbEyAI99RgP4txK-2" target="btc_JdbEyAI99RgP4txK-31">
          <mxGeometry relative="1" as="geometry" />
        </mxCell>
        <mxCell id="btc_JdbEyAI99RgP4txK-5" style="edgeStyle=orthogonalEdgeStyle;rounded=0;orthogonalLoop=1;jettySize=auto;html=1;" edge="1" parent="1" source="btc_JdbEyAI99RgP4txK-19" target="btc_JdbEyAI99RgP4txK-2">
          <mxGeometry relative="1" as="geometry" />
        </mxCell>
        <mxCell id="btc_JdbEyAI99RgP4txK-6" style="edgeStyle=orthogonalEdgeStyle;rounded=0;orthogonalLoop=1;jettySize=auto;html=1;entryX=0;entryY=0.5;entryDx=0;entryDy=0;" edge="1" parent="1" source="btc_JdbEyAI99RgP4txK-7" target="btc_JdbEyAI99RgP4txK-9">
          <mxGeometry relative="1" as="geometry" />
        </mxCell>
        <mxCell id="btc_JdbEyAI99RgP4txK-7" value="" style="outlineConnect=0;dashed=0;verticalLabelPosition=bottom;verticalAlign=top;align=center;html=1;shape=mxgraph.aws3.queue;fillColor=#D9A741;gradientColor=none;" vertex="1" parent="1">
          <mxGeometry x="30" y="226" width="150" height="48" as="geometry" />
        </mxCell>
        <mxCell id="btc_JdbEyAI99RgP4txK-8" style="edgeStyle=orthogonalEdgeStyle;rounded=0;orthogonalLoop=1;jettySize=auto;html=1;entryX=0;entryY=0.5;entryDx=0;entryDy=0;" edge="1" parent="1" source="btc_JdbEyAI99RgP4txK-9" target="btc_JdbEyAI99RgP4txK-11">
          <mxGeometry relative="1" as="geometry" />
        </mxCell>
        <mxCell id="btc_JdbEyAI99RgP4txK-9" value="Nginx&lt;div&gt;Load Balancing&lt;/div&gt;" style="rounded=0;whiteSpace=wrap;html=1;" vertex="1" parent="1">
          <mxGeometry x="230" y="220" width="120" height="60" as="geometry" />
        </mxCell>
        <mxCell id="btc_JdbEyAI99RgP4txK-10" value="Pull&#39;s metric data from Pods" style="text;html=1;align=center;verticalAlign=middle;resizable=0;points=[];autosize=1;strokeColor=none;fillColor=none;" vertex="1" parent="1">
          <mxGeometry x="590" y="558" width="170" height="30" as="geometry" />
        </mxCell>
        <mxCell id="btc_JdbEyAI99RgP4txK-11" value="Proxy&lt;div&gt;Layer&lt;/div&gt;" style="rounded=0;whiteSpace=wrap;html=1;" vertex="1" parent="1">
          <mxGeometry x="400" y="220" width="50" height="60" as="geometry" />
        </mxCell>
        <mxCell id="btc_JdbEyAI99RgP4txK-12" style="edgeStyle=orthogonalEdgeStyle;rounded=0;orthogonalLoop=1;jettySize=auto;html=1;entryX=0.538;entryY=0.994;entryDx=0;entryDy=0;entryPerimeter=0;exitX=0.5;exitY=0;exitDx=0;exitDy=0;exitPerimeter=0;" edge="1" parent="1" source="btc_JdbEyAI99RgP4txK-13">
          <mxGeometry relative="1" as="geometry">
            <mxPoint x="322.7700000000002" y="516.88" as="sourcePoint" />
            <mxPoint x="604" y="350.0000000000001" as="targetPoint" />
            <Array as="points">
              <mxPoint x="323" y="486" />
              <mxPoint x="323" y="411" />
              <mxPoint x="533" y="411" />
              <mxPoint x="533" y="350" />
            </Array>
          </mxGeometry>
        </mxCell>
        <mxCell id="btc_JdbEyAI99RgP4txK-13" value="" style="sketch=0;points=[[0,0,0],[0.25,0,0],[0.5,0,0],[0.75,0,0],[1,0,0],[0,1,0],[0.25,1,0],[0.5,1,0],[0.75,1,0],[1,1,0],[0,0.25,0],[0,0.5,0],[0,0.75,0],[1,0.25,0],[1,0.5,0],[1,0.75,0]];outlineConnect=0;fontColor=#232F3E;fillColor=#ED7100;strokeColor=#ffffff;dashed=0;verticalLabelPosition=bottom;verticalAlign=top;align=center;html=1;fontSize=12;fontStyle=0;aspect=fixed;shape=mxgraph.aws4.resourceIcon;resIcon=mxgraph.aws4.lambda;" vertex="1" parent="1">
          <mxGeometry x="286" y="486" width="64" height="64" as="geometry" />
        </mxCell>
        <mxCell id="btc_JdbEyAI99RgP4txK-14" style="edgeStyle=orthogonalEdgeStyle;rounded=0;orthogonalLoop=1;jettySize=auto;html=1;exitX=0;exitY=0.5;exitDx=0;exitDy=0;exitPerimeter=0;entryX=1;entryY=0.5;entryDx=0;entryDy=0;entryPerimeter=0;" edge="1" parent="1" source="btc_JdbEyAI99RgP4txK-31" target="btc_JdbEyAI99RgP4txK-13">
          <mxGeometry relative="1" as="geometry" />
        </mxCell>
        <mxCell id="btc_JdbEyAI99RgP4txK-15" value="Trigger&#39;s Scaleup, Scaledown&lt;div&gt;as per monitoring&lt;/div&gt;" style="text;html=1;align=center;verticalAlign=middle;resizable=0;points=[];autosize=1;strokeColor=none;fillColor=none;" vertex="1" parent="1">
          <mxGeometry x="228" y="553" width="180" height="40" as="geometry" />
        </mxCell>
        <mxCell id="btc_JdbEyAI99RgP4txK-16" value="RunPOD cloud" style="text;html=1;align=center;verticalAlign=middle;resizable=0;points=[];autosize=1;strokeColor=none;fillColor=none;fontStyle=1" vertex="1" parent="1">
          <mxGeometry x="625" y="150" width="100" height="30" as="geometry" />
        </mxCell>
        <mxCell id="btc_JdbEyAI99RgP4txK-17" value="Request Queue" style="text;html=1;align=center;verticalAlign=middle;resizable=0;points=[];autosize=1;strokeColor=none;fillColor=none;" vertex="1" parent="1">
          <mxGeometry x="50" y="285" width="110" height="30" as="geometry" />
        </mxCell>
        <mxCell id="btc_JdbEyAI99RgP4txK-18" value="Responsible for&amp;nbsp;&lt;div&gt;Register/Deregister&amp;nbsp;&lt;/div&gt;&lt;div&gt;instance endpoints&lt;/div&gt;" style="text;html=1;align=center;verticalAlign=middle;resizable=0;points=[];autosize=1;strokeColor=none;fillColor=none;" vertex="1" parent="1">
          <mxGeometry x="360" y="280" width="130" height="60" as="geometry" />
        </mxCell>
        <mxCell id="btc_JdbEyAI99RgP4txK-19" value="" style="rounded=0;whiteSpace=wrap;html=1;rotation=90;" vertex="1" parent="1">
          <mxGeometry x="582.5" y="207.5" width="240" height="205" as="geometry" />
        </mxCell>
        <mxCell id="btc_JdbEyAI99RgP4txK-20" value="Pod&lt;div&gt;Manager&lt;/div&gt;" style="text;html=1;align=center;verticalAlign=middle;resizable=0;points=[];autosize=1;strokeColor=none;fillColor=none;fontStyle=1" vertex="1" parent="1">
          <mxGeometry x="604" y="332" width="70" height="40" as="geometry" />
        </mxCell>
        <mxCell id="btc_JdbEyAI99RgP4txK-21" value="" style="aspect=fixed;sketch=0;html=1;dashed=0;whitespace=wrap;verticalLabelPosition=bottom;verticalAlign=top;fillColor=#2875E2;strokeColor=#ffffff;points=[[0.005,0.63,0],[0.1,0.2,0],[0.9,0.2,0],[0.5,0,0],[0.995,0.63,0],[0.72,0.99,0],[0.5,1,0],[0.28,0.99,0]];shape=mxgraph.kubernetes.icon2;kubernetesLabel=1;prIcon=pod;rotation=-180;direction=west;" vertex="1" parent="1">
          <mxGeometry x="725" y="371" width="50" height="48" as="geometry" />
        </mxCell>
        <mxCell id="btc_JdbEyAI99RgP4txK-22" value="" style="aspect=fixed;sketch=0;html=1;dashed=0;whitespace=wrap;verticalLabelPosition=bottom;verticalAlign=top;fillColor=#2875E2;strokeColor=#ffffff;points=[[0.005,0.63,0],[0.1,0.2,0],[0.9,0.2,0],[0.5,0,0],[0.995,0.63,0],[0.72,0.99,0],[0.5,1,0],[0.28,0.99,0]];shape=mxgraph.kubernetes.icon2;kubernetesLabel=1;prIcon=pod;rotation=-180;direction=west;" vertex="1" parent="1">
          <mxGeometry x="725" y="258" width="50" height="48" as="geometry" />
        </mxCell>
        <mxCell id="btc_JdbEyAI99RgP4txK-23" value="" style="aspect=fixed;sketch=0;html=1;dashed=0;whitespace=wrap;verticalLabelPosition=bottom;verticalAlign=top;fillColor=#2875E2;strokeColor=#ffffff;points=[[0.005,0.63,0],[0.1,0.2,0],[0.9,0.2,0],[0.5,0,0],[0.995,0.63,0],[0.72,0.99,0],[0.5,1,0],[0.28,0.99,0]];shape=mxgraph.kubernetes.icon2;kubernetesLabel=1;prIcon=pod;rotation=-180;direction=west;" vertex="1" parent="1">
          <mxGeometry x="725" y="314" width="50" height="48" as="geometry" />
        </mxCell>
        <mxCell id="btc_JdbEyAI99RgP4txK-24" value="" style="aspect=fixed;sketch=0;html=1;dashed=0;whitespace=wrap;verticalLabelPosition=bottom;verticalAlign=top;fillColor=#2875E2;strokeColor=#ffffff;points=[[0.005,0.63,0],[0.1,0.2,0],[0.9,0.2,0],[0.5,0,0],[0.995,0.63,0],[0.72,0.99,0],[0.5,1,0],[0.28,0.99,0]];shape=mxgraph.kubernetes.icon2;kubernetesLabel=1;prIcon=pod;rotation=-180;direction=west;" vertex="1" parent="1">
          <mxGeometry x="725" y="201" width="50" height="48" as="geometry" />
        </mxCell>
        <mxCell id="btc_JdbEyAI99RgP4txK-25" value="" style="aspect=fixed;sketch=0;html=1;dashed=0;whitespace=wrap;verticalLabelPosition=bottom;verticalAlign=top;fillColor=#2875E2;strokeColor=#ffffff;points=[[0.005,0.63,0],[0.1,0.2,0],[0.9,0.2,0],[0.5,0,0],[0.995,0.63,0],[0.72,0.99,0],[0.5,1,0],[0.28,0.99,0]];shape=mxgraph.kubernetes.icon2;prIcon=pod;rotation=-180;direction=west;" vertex="1" parent="1">
          <mxGeometry x="614" y="284" width="50" height="48" as="geometry" />
        </mxCell>
        <mxCell id="btc_JdbEyAI99RgP4txK-26" style="edgeStyle=orthogonalEdgeStyle;rounded=0;orthogonalLoop=1;jettySize=auto;html=1;entryX=0.005;entryY=0.63;entryDx=0;entryDy=0;entryPerimeter=0;" edge="1" parent="1" source="btc_JdbEyAI99RgP4txK-25" target="btc_JdbEyAI99RgP4txK-24">
          <mxGeometry relative="1" as="geometry" />
        </mxCell>
        <mxCell id="btc_JdbEyAI99RgP4txK-27" style="edgeStyle=orthogonalEdgeStyle;rounded=0;orthogonalLoop=1;jettySize=auto;html=1;entryX=0.005;entryY=0.63;entryDx=0;entryDy=0;entryPerimeter=0;" edge="1" parent="1" source="btc_JdbEyAI99RgP4txK-25" target="btc_JdbEyAI99RgP4txK-21">
          <mxGeometry relative="1" as="geometry" />
        </mxCell>
        <mxCell id="btc_JdbEyAI99RgP4txK-28" style="edgeStyle=orthogonalEdgeStyle;rounded=0;orthogonalLoop=1;jettySize=auto;html=1;entryX=0.005;entryY=0.63;entryDx=0;entryDy=0;entryPerimeter=0;" edge="1" parent="1" source="btc_JdbEyAI99RgP4txK-25" target="btc_JdbEyAI99RgP4txK-22">
          <mxGeometry relative="1" as="geometry" />
        </mxCell>
        <mxCell id="btc_JdbEyAI99RgP4txK-29" style="edgeStyle=orthogonalEdgeStyle;rounded=0;orthogonalLoop=1;jettySize=auto;html=1;entryX=-0.003;entryY=0.545;entryDx=0;entryDy=0;entryPerimeter=0;" edge="1" parent="1" source="btc_JdbEyAI99RgP4txK-25" target="btc_JdbEyAI99RgP4txK-23">
          <mxGeometry relative="1" as="geometry" />
        </mxCell>
        <mxCell id="btc_JdbEyAI99RgP4txK-30" value="" style="group" connectable="0" vertex="1" parent="1">
          <mxGeometry x="440" y="458" width="100" height="120" as="geometry" />
        </mxCell>
        <mxCell id="btc_JdbEyAI99RgP4txK-31" value="" style="sketch=0;points=[[0,0,0],[0.25,0,0],[0.5,0,0],[0.75,0,0],[1,0,0],[0,1,0],[0.25,1,0],[0.5,1,0],[0.75,1,0],[1,1,0],[0,0.25,0],[0,0.5,0],[0,0.75,0],[1,0.25,0],[1,0.5,0],[1,0.75,0]];points=[[0,0,0],[0.25,0,0],[0.5,0,0],[0.75,0,0],[1,0,0],[0,1,0],[0.25,1,0],[0.5,1,0],[0.75,1,0],[1,1,0],[0,0.25,0],[0,0.5,0],[0,0.75,0],[1,0.25,0],[1,0.5,0],[1,0.75,0]];outlineConnect=0;fontColor=#232F3E;fillColor=#E7157B;strokeColor=#ffffff;dashed=0;verticalLabelPosition=bottom;verticalAlign=top;align=center;html=1;fontSize=12;fontStyle=0;aspect=fixed;shape=mxgraph.aws4.resourceIcon;resIcon=mxgraph.aws4.cloudwatch_2;" vertex="1" parent="btc_JdbEyAI99RgP4txK-30">
          <mxGeometry x="11" width="78" height="78" as="geometry" />
        </mxCell>
        <mxCell id="btc_JdbEyAI99RgP4txK-32" value="Monitoring tool" style="text;html=1;align=center;verticalAlign=middle;resizable=0;points=[];autosize=1;strokeColor=none;fillColor=none;" vertex="1" parent="btc_JdbEyAI99RgP4txK-30">
          <mxGeometry y="90" width="100" height="30" as="geometry" />
        </mxCell>
        <mxCell id="btc_JdbEyAI99RgP4txK-33" style="edgeStyle=orthogonalEdgeStyle;rounded=0;orthogonalLoop=1;jettySize=auto;html=1;entryX=0.005;entryY=0.63;entryDx=0;entryDy=0;entryPerimeter=0;" edge="1" parent="1" source="btc_JdbEyAI99RgP4txK-11" target="btc_JdbEyAI99RgP4txK-25">
          <mxGeometry relative="1" as="geometry">
            <mxPoint x="600" y="260" as="targetPoint" />
          </mxGeometry>
        </mxCell>
        <mxCell id="btc_JdbEyAI99RgP4txK-34" value="" style="shape=image;verticalLabelPosition=bottom;labelBackgroundColor=default;verticalAlign=top;aspect=fixed;imageAspect=0;image=data:image/png,iVBORw0KGgoAAAANSUhEUgAAAs4AAAIYCAYAAAB9i2oeAAAAAXNSR0IArs4c6QAAAARnQU1BAACxjwv8YQUAAAAJcEhZcwAADsMAAA7DAcdvqGQAAIn7SURBVHhe7d15fFTlvT/wz+yTPQGysAaCGkFZEhHUXlERQaCKwEUQCororVaoekUt6qW3Xq1WsGqhV1tFVAoK/BCBAoIKFq8LlBIQZRMCYcskgezL7PP745wzy5NJcrLP8nm/XlHyPGfObCczn3nme55Hs2bzHg+IiIiIiKhRWrGBiIiIiIjqY3AmIiIiIlKBwZmIiIiISAUGZyIiIiIiFRiciYiIiIhUYHAmIiIiIlJBo3Y6Or1Oi8v7d0d6ajJMJoPYTUREREQUNmw2B4pKyvHTyUI4XW6xOyhVI856nRbX5l6OPr1SGZqJiIiIKOyZTAb06ZWKa3Mvh16nKhKrC86X9++OxIQYsZmIiIiIKKwlJsTg8v7dxeagVAXn9NRksYmIiIiIKCKozbqqgjPLM4iIiIgoUqnNuqqCMxERERFRtGNwJiIiIiJSgcGZiIiIiEgFBmciIiIiIhUYnImIiIiIVGBwJiIiIiJSgcGZiIiIiEgFBmciIiIiIhUYnImIiIiIVGBwJiIiIiJSgcGZiIiIiEgFBmciIiIiIhUYnImIiIiIVGBwJiIiIiJSgcGZiIiIiEgFBmfqZEfxwkATkuOUn4lYVy1uQ833KR70Pqb3YkeT7Z2r4PUh3mPgwa1ib+jxv70jXj8tdtez4wH/YzzYTxKyc2/Hcx+fhlW8cLOE5vMbEg7/FkP8H/OpH7XysW6OFjwvJ1/HCOUy176OArGfiDoFgzN1rm/ewrKAd4RP8fbKIv+GNlPxzW8x/82mQw5Rx7Oi6NguLJuVjewHPkWF2E2ttvddIXxufRMrz/s3hBnraayc9bS6EN6WnOXY+z8P4e2TYgdRdGBwpk61e+2KeqM+e5f+L44Jba1iPY3ND2Uj87aXsdcmdkab2/F2jQ3lNTaU17yPMWI3dbqKD+/F4r1iK7WK80usWyG+0nyHZe8eFdpCSP/HsEf5W/3nY8j066r45nXcmZWN+R9b/Frbn/XkJ5ifm44xL3+LqH8ppajF4Eydx/klNq+U38zM0zHrTrm9YAXW7fffsHUK3pqIWSs50kyhYeo65YOL78eSvx0LcpUtyvHZNzxe29Q3n8D7UnPPHNwhNxes+BDf+28XFj7Fgtuexu4O/1riNN6ZPg0rOdJMUY7BmTqNdcObeFt5M5vzMJbOmi73FGHZB1/6b+rVWC2sfx2p1Hcay641YcizvlGlY89mS9s88Kn/RVHxzVt48MY+yFBqCrv2wcgH3sLeSwGbNe3Sd3j7gRHI7upXS9nEvqwnP8Fz44cgM0nePikdI+55Pej29baNMyG5xxDc+ZtPUCAOqAXVQK2lUE957NJ3WHZPtvfxyBg8Dcu+KQ/cFQA4i7D5N7djiHJ/r7gdz20qwrFm1gC3mLMce9+8FyOzkrzXl5E1Ag+++R0qnOLGwbdPjktC9o334m0196/HCMxvdR1yfeb0mzFrypXe3026gO42eN6bd98Da7iPouKb1zFrsHK5JAxp4PgErCj4+GncmZsecDtnvR78+ZD+7vy3beC523qvb5sHVmDv/9wkH5tJGPI/3wkbi6xY9+ab8nNmxqz738Kse+SuotexcnfAxjLptUO6ziFYsvMjPHiFchunYZ1STRbkMc3IavoYsdX7+7odL+wQjr9gNc5b75XOA/Fu9BHulm/jMm+glZ8D7/Ml7b/B+nk19+Hk6xgRl43nDisNR/HcYGlb6bXW73VFrMcOdj+g/jlVfYwQdRAGZ+okVmz++BP532bMmnwdMGYOHjTLvW+/2UEnCZZj94JsZN72KNbtL/K9UViL8P2Hj2JMn2w8uTtIoAqm4lM8OOgmPPnhART5v0Mp+8q6vV5NZcXWhzBk8DQs+8dR3xuBsxzHNj2NMVk3BdYRHn8dY8RtAaDiKHYvnYYht7XRCUT5f8SdWTfhuU2+N07ryU/w3G0j8IL3jROA8yiW3dIHs5bu8oW387uw7J7BeHB9md+G7aTiSzyZm44xCz7C934PuLXoANYtuAmZuY8Jo3Ll2PFQdr3tASuK9n+EJ2/Lxvwdfu3B7l/FAayclY0xr7Tth4Gao5ux4+N8TO8ei/l9+uC54mU498oCXFj23yhZ9gs8PnIWVn59vBXPezPvu5+CP41B5m1PY/NJ79GAgk1PY8yNvxVKqsqx46ErMGTW69h9zO9vpuIoNj97EzJveyvgdh5bcTsG3/Yo1u3331Z+7m55HccaCkZbf4OpL38nH5tWDL5yqLhFoOpPsGmT/G/zHEy9ARgz+2FILzVWvP1mUycJnsbSX9yLdcrfbvKVGJwuHx+3BT/+Vs7KxpB5nzaw348wq97f1y4smdTwc6BeOXYvGCI9B97nS9p/0Pr5Ft+HNtbAc9riY4SoHTE4U+eo/gTrhDcz6G/G1DlycsYnWLettS/ZfTHvnzYcfNE3kpf94jHp6/F3bgcAVKy7F3cqJwz2fxhr8ytQXlOBY9t+g8EAgNN4e9z0eoE3mIIVT2Od/K6U/V97YKmwobyiAnuW3CI1OnfhycV+I+nVn2LBrBWQBq+G4rlvK1BeY0PBh9ORBADO7/Dkbz6S3+iKsPKxp6WvlZOmY2W+tG35pWN4Ybi8v/0rsO64d+8tZy2CdfxbOHjJhvJLB/Gct4TgNFauOeDdrGjlY3hOKanJ/Q12nJHu7+4lOSjY3z4nePqUY90DY70fLDIf3ohjl2wov3QGmxbIQerkm7jzHuXxBfDNf2P2h9Ib8ODfyc9PjQ2WdXPkEFWOlR/6vokIuH9+x8bBt+4CKlp+bK6bKo2c9U4y4z/6p2DVtRk4+fCvMEKXjF/1jsfUDCsy/m8NSretwcX1y1G4/h94+IpkbM7ths9m3Y4T7/8Zlwr2Ne95b+Z992ctsuGOt47BUmOD5Z+/k/8u6pdUWbc+itnKib25v8PuIhvKK4qw8p5kqW3vo3hynRyAzq/Ak/N2Sce2d9sK7HnrLunY3/807n6pgfrjinIMWSLfnryDWDJJec0IzrrtQ2yW/22eMx3DAWDkdMxSLrbpQ2xu9EO6FRXJD2PTGen42rP5cWQDKFg2Dc/JtehJ96yRjz/f30vRikexpKGSs8G++7z7v5TXp3KsfPuTxoPq+PdRXrMRU70N07G2xobymoOY1196nmfJr2e+2+T7m6j4cCLmrfNdg+r70P8x7Kk5hhcGKpe8Ei98Lx1Db49X2loh2HPammOEqB0xOFOnKFr5prdMIH3efdKbGYDh9/tOgtnxv+/5Qk+7OI2Vryhh4Tos3vY6xqSbAZiRPvJ32PyWFK6BXXjhr77A2JBjR30v4pavv8TeIiugNyP74U99tayv3+zdxrrtTSjvYdkvrsGCwdI7edKdr+CFm+SNtr6HTUUAkI5ZW+Wa2At/wUjrUez48HXMnzzS+8YHHMWxE8q/W2M63l45B5lmAOYrsWChUkIDFJ1XTkYqwo51u+R/p2PBG7/D8K4A9GYMfvh9PKc8oe3l5HtYopTqDH8DO5bcDumpS8fI323HUuWsx3/8Fm8r4eWG12GRn4fdD/VFwTef4O3/mYgxs/xOUP3htDwqGnj/5r3jOzYyZ72PJUo9fgvE6jR4qHc8NuakYl6feAyKN8CclILk3n2ReuVV6D7kGvTMHYGeuSPQfcg1SL3yKiT37gtzUgpMx/bjwp9/h0NTx+NcYTxidRp1z3uz7rvgnvexclZfmAGYB/4GzyllDihCgffcNCs2r1BGbq/EC+/9BoPjAeiTcceLL2OkvNWOFRtQBODYuy9DqpBIx4I3lG3NyJ71O8zPlrYteP0tBD1H0vwwnntYvj1XXIl0vbiBvyKs/F/lbzwd82ZcJ//7OjzwWF/5303P5DPyyYUY2VU6vrL7JwM4gJV/Uv7ep+Ptt+6Sj78rseAPymj2aSxbHayMxP/xMWPw1DmQ7zJw2tKK1zwr1i19U/6gfTuWvK7cpnSM/K+F3rC9ecWH8nW05j60sSDPaauOEaJ2xOBMnaAIm9YqL8bpmDXR76vWgfdgqpKc976Gt/1LA9pa0S7sUPafPQ4jewZ2J428xTu6VrT1SxQItZ/+Pw9uBUbeOV1+swEqdj6NO69IQvIVt2P+65/iWJARre/3+EafB1+hvIkjMCTXfIpZ6XKzXG+bnZSEzIEjcPcDT2PlP1r+NtuggTnI9g8jGX2h3ASfPOz9h/LvWzDcOyoNAOkYM9E3yt8einZ/6i0TyJ5ws3D7kjFylHJMFWHzbl9ZRcXet/Dg9UlITk/HiHHT8OTLn+L7oEN8gfdvZMAHATNGjpG/RWimMV3N+HBwV8zoHgtzjBkpffuj17U3IP2qwUjqnYnYLt1gjIuH3myG3myGMS4esV26Ial3JtKvGoxe196AlL79YTSbMaN7LD4c3BVjujY+4qpQf98DZV8d+Fxm9Kx/NAAHsHen8u+huKK/X1f6HGxSToTcOgfpsOL775XnpAhLbvT/WxqCF5Qn1vot9gZL8qOu8416N+X8BqxTklX6HNzpd5xmT5nu/ZDe+Ew+6Rg+RLjPRXnYq/zpiX8vfh9SLEuUoO5PeHwy+6q/P406imN7lH9/igfT/R7XpGm+uuh/7MFBtPY+tLF6z2krjxGidsTgTB3v5Id4xztMUP9FcYn3hfA01q1vx6/iqit8ozs6szf0emVe6RsJUsE8/i/4x5LbA0Pc+V1Y+exEjEg3YcQDb2GvX4FhebmK1OJVhJV3SvW2RU4A5qEY85s3sParM1jpHQFsJ0kpkL9sD9CcW9/WrBWFvl/09Z45ZPYPEty/eQyDb3kU6+S0mH7THLzwznbs+fZ3QZ/nxu5fenqw8Ni4+X3i8Vz/RKQYtEjJzELP3BFI7NELOoNB3LRBOoMBiT16oWfuCKRkZiHFoMVz/RNx487/FjcN1Mz73piklBSxCUA51B/OFhSpKhG3AsFqWJOS6/+tNqBg3Zu+EcmilzHS/wPvtS/7RtgLPsK6Bj+kpyA5SWjyf+1orSDHb8tYUKDqRtVJ/2vL+9Ba9Z7TVh4jRO2IwZk63LHVbzYyuhOo4PW3sLu1L4y6Bt6Y4pN8IddlrR+UCo76bmcDuwhkRvbDG3GsogJ7tr2PF+bcgux03wWPffgoxlzvd0JVo18xC05+iGXKCOjA32FP0R6s/a+HMCY3HSZh046i6iFpJ+ak7r5fnPWeORSc9H3gUmao2PGu8jW2GVM/LMKxrW9h3j03Izsu+D0J3iopKmpe5EguSsTUjFiYEhLRfegwJPbsLW7SbIk9e6P70GEwJSRi6L+W48zzj4ibeDX3vreE+j3FIClV+bevVrb+j1y322JHsfKvaj94n8ayvwafyScoPTrt7w4NPtbJSPZ2KLXPwX7k+dtbch+CX3E76KhjhKj5GJypgx3Fug9VDSVIrG/i7Q31gxEAfH/cfz+ncfyg369+go4+AkD69RiufFd7bBt2izNe7N7lneM1c8ztyASQ+djBIC/ewgkyejOyR07HvGWfYk9+BcqLtmOektALPsFn8gltI29VaqiB3XsCa6j3LvBNDfXgVgDH8nyBe8hQv69V/b8i70g5GK7UYWMXdgcUGhZhx0a1gaVl0keM8H7NfmzLl8LIWTl271Qez74Yc2tf4fjoiyFX+cbQrft3Bfkg19j9s2L3DqX+uWlnXvw1zNVmxHbthoxBQ2GMjRM3aTFjbBwyBg1FbNduKN+1CWdefEfcpAX3vSVuxkjv38Au7A04Ke47POmdnvFe7HCmY8i1yh/EUeze7/f3Xa1MrxZkWrPmOvwh1jVjB82aySfzZoxR7sLhXdjrf7miFbizre5DUFci23uSnr+hGD5K+bfwHOz/LbKV26RMxdns+9AXV6j5euKw32sVhNcu1TroGCFqAQZn6lj+S2yn/wa7g4TQ8hobjvnV1W3+2HemeXpPXy3wsVVvSnPJOsux97fT/OYYbVjBiaOwwoqKCiuAK/Hgk0qt6nd4ctxj2FFkBWBF0e7f4o6HlJOKbsdzv24gfHsV4e1blHCQjlkrj8Iqj5RbL5zCcW+JRl8o3/Kbxz2MqfIITtGSX+IFeS5d6/cvY8Gb8j1OehgPjgGQneP7Sv3D1/H2SStgLcLu3/4SS5o3+NlG0jFmqvLYFWHZE7/1ey7uxJOtOGNHmXUi+I889/TAX2GBEmz3PooxCz6VpgC0FmH3b8divnLm6fjfYf5ASG/6Q5RrOIq3l36JCidgPb4CDz4abDaJdEydc5f87yIse8B3bBSsvBcLlBlhmmB55xWUf74BsV26IjX7KgAacZM2oEFq9lWI7dIV5Z/vwfW9xGDe3PveEmbcMUep8S/CkkeV48GK75c86p2vPenhhzFGDwyeNsd3EvCj92LlSSvgLMfu537rPWl45K/uCVgtr7n8l9hOX7Cn3muM9HMGi731659gk+qZfIZilvc14VMseHCFNGWhtQibn/2NfFJb6+9D007jeAGA6nJYnWbccbfvmPU+B9bTePu5l+UPl8l48H7lA3tr7sNpHDtpBazl8gQzGcj0fn33Cd5ZIU21Zz25ArMe+Cjgkmp1xDFC1BIMztSh/JfYTp81qcGTYtLvvMc70wY2vemdDs487mHMUuoND7+OMX2kBUPGLDmNJLEOUeEXOq0rJiIjLgmZT0hfy6bP+QhrlbPvTr6Ju7OSpEUhxr0sjzb3xYPb3sfUhvbtlY4H//IHDNcDQDk2PzQEGfJiFRk5D0GZnnXwi3/A1Hj5IvG3Y8nKOXK5yAEsuU2a5D/j+t/K152OWe/8t7TP/vdgnt8I6JODk5DctQ/uXHIgoOSjokbtG3/rpc96HS8oJ1vtf9nvuSjE8Nzm1wA3TzpmfbjRe+JkwZsTpUVnlMcE0hRym96Rp/YDMOb+h73/Lnh7LDKTpOdms//EtpfKvPPcmqf+AUtHyaOzfsfGkIc+AZKa/s666rudKF61FIbYOHS7IugQYZvqdsVAGGLjMKxHHK5PNgb0Nfe+t4R5/Bv4QHlCvMdDEkb+Vn4+0ufg7f+SPxAP/B3WviifwFnxCeYPTkJyUjrufFueSu3O9/H2nFYcQwFLbAsnIAdIx513+31Ib8ZMPpnz1ninBKzY9JC0SE7XPpglT/uH4X/AYu+ZvW3J/4PQd3huoAnJ6TfhnQLAPPUvWKtM/6c8B12z8aRc5pX5m+1YfINy2ebfB9+JolasnJSE5K7pWLATUgh/XHmMrdgxT1rcJWPwQ9gMsX5ZpfY+RohaiMGZOo7/EtuNvpkB6HkfHvR+9fsdlr0rf/UffzuW/nMNZuX6vm5Oyp2OxbuONTyfaP/HsOnDOZBnewNgRrqt3DsCM+atMyj47A3MukmaDknaJB2D73kDO84cw+KRwU6NC+KKx7Ajfw+Wzg+sbYY+Gem507H4syLsfixw5Dpp/Fs4+P0azLvpSiQpAVifjOybHsPK749j6XjlutMxa9MZrJwz1Ldd0lBMXfIPFBx+yzfd19pPWhV+mkV/JebtCrxN5sHTsXjX93h7iu8EssyeGb7LtKWk27H0eBF2LJmDkf19j7c5XX5c9r+Okf4feG54Hd/v+gPu8G5rRuZNj2Hl9xXY8bAy9P8RNnm/4u6LWRuOYceLd0lT80F6zGetPIYdT/nPghJc4V9fAgB0zbocGm37v9RqtFp0zbocAPDL3sqnM1mz73tLJGPMW8dxcOVjGJnt9zeTdCVGzl+Dg4ffwhi/5yP7sT0o+OwNTM1N9/3dJV2JO178B75fOT3ITC7N4LfEtjibhih91sNSzS+aOZOP/krM+6wIO5ZMx2C/v3fv8ffZY4EzVbShMa/+Ay/c6fcIJQHllyA9B+8U1HsOzOnScbvnv4TX3Gbeh8x5O7ByztCA10lrhfRKmjl/e+DfirkvRs5fg2NfLmzxqHC7HiNELaRZs3mPR2wUjfVO7URE1LRjS4ZgxG+lDztT17XRIglh5OLHK3Bh6SIk9uiFlL4de/ZS2emTqLxwDj3mP49uk+eI3URE1IDt3vNjGtb+wyBEFJF2PORXezzwae/JRdaiT7Dkj8rJgbdg5DX+l4oOlzasADQaJPbsI3a1u8SefQCNRroNRETUphiciahFxsx+zPdVacHrGCMvuJCRNc279PjgF1/3LeASJaq+2wnbuVNISO/erDma24rOYEBCenfYzp1C1XedMuUKEVHEYnAmopa54Q/e+uz0gJMnzUjPvR0LVh7DDqGmOxpUfL0dABDXLU3s6jDKdSu3hYiI2gaDMxG1mLn/XXhh60Ecu+A/xVcFjn21Ec9N9jvZMopU/+v/oDMaYUp8Gt1fW4vuwsqOib9agT4LHwpsbGOmxCTojEZU7/8/sYuIiFqBwZmIqI04S0tgLzwDU3yi2NXhTPEJsF84A2dpidhFREQtxOBMRNRGbOdOAQAMMbFiVwPuQNrv16LPa9JPr1/d4eu6aRF6ye19XnsNXZT2e15Dn9+vkPp+vwiJDezDECMthKLcJiIiaj0GZyKiNuIsLQYA6EyBC5A0JPFXk2Gu2okzj9+NM4/vhOvyUXJAfgjd77oarr1348zjd6O6uCfif78I3nHsGMD+yd0488zzQAP7UG6DcpuIiKj1GJyJiNqI21YHANBodWKXCm+h8PHHUQoA92TDgPOwfSj1lH7zA9wxKX6LRJbDKa8GF8i3D+U2KLeJiIhaj8GZiKitKIHZ0+S6UgCAyv+dg2qM8pZZBJ5I2BPxSqnGXVdDi2TolWXX68rglP/Z4D6U29CiEE9ERMEwOBMRtRF9grTMscvpBHAeriCDvfokqfZYUfqSVI5x5vGdwPAVSPOG4x9Q/rjSdzfOPD4HxUFHmYPvw+2UorVym4iIqPUYnImI2oghvScAwGmtA7AZzirAMMivNvmmRYhNAxyn3wIAdFkonBColGB8eAyOmKsRJ48eJ/5qReAJgn4a2ofDKqV25TYREVHradZs3tPkd4pjRw0Vm4iIKIhDt2XBYDaj++BcQA628X5roTj23o1CuXYZeAjdXxsFZX3BgL6bFqHXXVfLoxs1sH4ijzjf8xr6DCpD+TPPo7KRfRR+vx8OqxWDPsuXe4iIqDHbdx4Qm+phcCYiakP5/zkd1Xlfo9e1N3TKktsA4HI4cO6f3yA+52fI+uNHYjcREQWhJjizVIOIqA0ljLgFAFB7qfMWHlGuW7ktRETUNhiciYjaUPLNPwcA1JQUiV0dRrlu5bYQEVHbYHAmImpDhvSeSB59F2xVlagtvSh2t7va0ouwVVUiefRdPDGQiKiNMTgTEbWx1Kn/AQCoOFsgdrU75TqV20BERG2HwZmIqI3FXDEI3abMhb2mGuUFp8TudlNecAr2mmp0mzIXMVcMEruJiKiVGJyJiNpB918tgjnrSlScP9Mh9c41JUWoOH8G5qwr0f1Xi8RuIiJqAwzORETtQKPVoteTi6HRG3Dxp6PtWu9cW3oRF386Co3eIF2nli/tRETtga+uRETtJPbKocj83V8AACVHf0R1UaG4SatVFxWi5OiPAIDM3/0FsVdy3n0iovbC4ExE1I4Sb7gN/V56H9qYOFw6eRyl+T/B43aLmzWbx+1Gaf5PuHTyOLQxcej30vtIvOE2cTMiImpDDM5ERO0s4bpRuOzPGxF39TBUWS7g/P69qLJcEDdTzX8fcVdfi8v+vBEJ140SNyMiojbG4ExE1AHM/bLRf+kGZMx9Cm55tPjcvm9RdvokrBXl4ub1WCvKUXb6JM7t+xal+T/B7XYjY+5T6L/0Y5j7ZYubExFRO9Cs2bzHIzaKxo5izRwRUVtxlpbg4sfvonTrR3CWyScNajQwxsZBbzJBo9MDADwuJ5w2G+y1NYBHeqnWp3RDl/HT0W3K/dCnpPrvloiIWmH7zgNiUz0MzkREnajqu52o2rcbtYf3w3r6ONx1NQH92pg4mPtegdiBuUgYNpIlGURE7YTBmYgozLiqKzDvvl8AAJa99zfo4pPETYiIqB2oCc6scSYiCiG6+CRUao2o1BoZmomIQgyDMxERERGRCgzOREREREQqMDgTEREREanA4ExEREREpAKDMxERERGRCgzOREREREQqMDgTEREREanA4ExEREREpAKDMxERERGRCgzOREREREQqMDgTEREREanA4ExEREREpAKDMxERERGRCgzOREREREQqMDgTEXWywz/+gIN5ed4fu90Ou90u/X5A+jn84w/ixYiIqINp1mze4xEbRWNHDRWbiIiojdTW1mLa5Imora0RuwAAsbFxWPPxRsTGxopdRETURrbvPCA21cMRZyKiThYbG4t/nzZdbPb692nTGZqJiEIAgzMRUQiYOu0exMbGic2IjY3D1Gn3iM1ERNQJGJyJiEJAQ6POHG0mIgodDM5ERCFCHHXmaDMRUWhhcCYiChHiqDNHm4mIQguDMxFRCJk67R5oNBpoNBqONhMRhRhOR0dEbe7Q2RqcL7PD7nSLXRKN2ED+3vqNNOr80MsfiV2kglGnRc8UIwb1rn+yJRFRQ9RMR8fgTERt4mSxFau/Kca270tRZ28gMJMqMac2AQDq+t0pdlEzxBi1GDe4C2bckIb+aWaxm4goAIMzEXWId/9hwdLPLgAAjAY94s1mGA16aDUcWqaO5/Z4YHc4UW21wu5wAgDm39YD99+UIW5KROTF4ExE7e7lv5/Fmu9KYNDrkJachMS4GHETok5TWVOH4vIKOJwuTLsuFb/5eW9xEyIiQGVw5smBRNRi7/7DgjXflSDWbEK/jDSGZgo5iXEx6JeRhlizCWu+K8G7/7CImxARqcbgTEQtcrLYiqWfXYBBr0Ovbl2g0/HlhEKTTqdFr25dYNDrsPSzCzhZbBU3ISJShe90RNQiq78pBgCkJScxNFPI0+m0SEtOAvyOXSKi5uK7HRG1yLbvS2E06FmeQWEjMS4GRoMe274vFbuIiFRhcCaiZjt0tgZ1djfizZzii8JLvNmMOrsbh87WiF1ERE1icCaiZjtfZgfkqeeIwolyzCrHMBFRczA4E1GzKSsCcp5mCjfKMWt3cZEeImo+BmciIiIiIhUYnImo+TjQTEREUYjBmYiIiIhIBQZnIiIiIiIVGJyJiIiIiFRgcCYiIiIiUoHBmYiIiIhIBQZnIiIiIiIVGJyJiIiIiFRgcCYiIiIiUoHBmYiIiIhIBQZnIiIiIiIVGJyJiIiIiFRgcCYiIiIiUoHBmYiIiIhIBQZnIiIiIiIVGJyJiIiIiFRgcCYiIiIiUoHBmYgiy20Z2PJoT/w+R+zoADmpWPtob7x1m9ghk/u3BPlZOyVB3LoJCfj9Qy25HBERtRSDMxFRBzt7+CwmvOH3s9sK9EpmCCYiCnEMzkREnS2vBF+XAXFxBrGHiIhCiGbN5j0esVE0dtRQsYmIotimvEv47foC9OiagqT4WLG7c92WgS0DdTi4+zyeyRM7fSZP6Ym5vXxjBzXnynH3+iq/LRLw+4eSMcTk11RWgwkflPp+z0nF2pFmxMm/nj1nRZdeZpQePouHPvNt5iVvH6z/0dm9MQaB+390dm+MSfHbyGbF8rdK8DHgvX2XlfjdbuH2QB7dVq5r8pSemJtqx44SI8Z477u73mPV1GMTeLuEy9+WgS39XThYa8aQFPE2d76K6lpcuFSG303JxJ05XcVuIopi23ceEJvq4YgzEUWdR2f3xtxewMHdDZVKyKG5tiagnKImJc63jRxSca5c3qYG6BUYWlXLScXPUhzYIYbmWCuWe0s6anDWZMbc2V0CLurlF8qV27z8nBu9Bwr13iYzxsTVyduU46BNiyEjUjFZ7pYeGxd2+F1vqd9jI4Vmh6//sAtDRgp13SYzhkB+7EIoNBMRtRaDMxFFl5xU/CwFOHvYb5Q0rwQfnXMjrlccHgWAHDMuM7lx8JDf6HKeFSdsvnKKRweZEWez4iPvSGwpHjrs8G3fiN4DhZMDR5oRBx3SvQG3CwakAGdP+ofOUhwpAxCr84Zcf5OzjIizWbHDbyT743w7aqBFl27+W/oH9Co8c9IBmIwYlgPf9R624A3v9qV46I2z0oiz97Hz6//Mgh1lQO/+vvANCI8dEVGEYHAmoujSTYc4uFF6MbBZCpkGDLhNCtJ3vyEHa+9MGP5lGwlIjwVqSqyBo6kXXajx/70B9U4OfKMGZ+E/8iuFVanEogvekgN2QNmG4OP1572ju5On9PQL5AKbC2fFNsVtRvQO8tgoJmcZEQcHjghlJm8UOgCTDr29LS4UNVImQ0QUrhiciSgKNRXspKnevOGzrEYua1D6DejiX/usyHOhZeOs8mi1d+RXKomQRqTj0NsmlWzsKBMv58dvqru5vbRSON9tVRXkAzX12BgwRpxObyBPaiSi6MDgTERRyL8swp882npbHIaY3L4aaP8TAgEADpR6Q7SfHB0aqEBuHm9JhHz9KuqEldIRpSZaPPlQvYYeG4VffXPAj395BxFRZGJwJqLoctEVpO5XKUOQRlsnJ+oAmx37/Edec8y4zDvKXIWiWiAu1RxYb9xNV780olnk0d5uuiAlEVL9cXDBS0ek+9QMDTw2io8rXUGD9eQpPbHlIf8aZyKiyMTgTETRRZ4zOWC2iZxUTO+lRc25GryhBESTGWO8M0Uk4Pcj5Hph+eS8Nw5ZUWMyY7p3Jo4ueKvFJQvSZZXrlwKsAT/zWxDl0dlxUg1xQC2xQg7yysmN8N0nAOiSqHJhFe9jk+Hbj1K2MruLfCKgFkNG+vXL1xN4IiMRUWTiPM5E1GyhP49zAwHWb05hca5i//mOEaS/5lw5vo5Llqdik8sSWjiPc7BRYHGu5Hr3o6wGy2ti5Gn0zuOZPHEeZ3HeaTcO7q5Dl5Fx6C3PP63M4xwwr3KQea/F+y7OXy3OLx3w2N2WgS0D4XuMQgzncSaihqiZx5nBmYiaLaSDM1EjGJyJqCFqgjNLNYiIiIiIVGBwJiIiIiJSgcGZiIiIiEgFBmciIiIiIhUYnImIiIiIVGBwJiIiIiJSgcGZiIiIiEgFBmciIiIiIhUYnImIiIiIVGBwJiIiIiJSgcGZiIiIiEgFBmciIiIiIhUYnImIiIiIVGBwJiIiIiJSgcGZiIiIiEgFBmciIiIiIhUYnImIiIiIVGBwJiIiIiJSgcGZiIiIiEgFBmciIoo+HrGBiKhpDM5ERERERCowOBNRsxl10kuH28NhOwovyjFr1PPtj4iaj68cRNRsPVOMAAC7wyl2EYU05ZhVjmEiouZgcCaiZhvUOw4xRi2qrVaxiyikVVutiDFqMah3nNhFRNQkBmciapFxg7vA7nCisqZO7CIKSZU1dbA7nBg3uIvYRUSkCoMzEbXIjBvSAADF5RVwudxiN1FIcbncKC6vAPyOXSKi5mJwJqIW6Z9mxvzbesDhdOHcxVKGZwpZLpcb5y6WwuF0Yf5tPdA/zSxuQkSkCoMzEbXY/TdlYNp1qai12nDKUsyyDQo5lTV1OGUpRq3VhmnXpeL+mzLETYiIVNOs2bynyfmkxo4aKjYREXm9+w8Lln52AQBgNOgRbzbDaNBDq9GImxK1O7fHA7vDiWqr1TuLxvzbejA0E1Gjtu88IDbVw+BMRG3iZLEVq78pxrbvS1FnZ9lGayTtexFaeyUqcp+C29xV7CaVYoxajBvcBTNuSGN5BhE1icGZiDrFobM1OF9mh511z832wzef4os1fwYAjLj9Hlw3boa4CSkaePcy6rXomWLklHNE1CwMzkREYeS1JX/A3zdtDGhbtXY9MjK6B7QREVHbUxOceXIgEVEnO37sKB5+8P56oRkAtm/bKjYREVEnYXAmIupEf9+0EQ8/eD+OHzsa0K7RaJCR0R0frFgOi6UwoI+IiDoHgzMRUSd5bckf8NqSP4jNAACPx4Mnf/MMAGDxSy+K3URE1AkYnImIOsnjC57Gwud+i2uGXSt2AQBiYmMxdtwEHMjbj+3btojdRETUwRiciYg60egxY/HKH9/AO++txN3TZyA5Odnb99PxY5g95365ZONdlmwQEXUyBmciohDQL6s/fvmreVi/aSu0Wi00Gg1+On4cGRndMWbceFgshTxRkIiokzE4ExGFGI1GA61Wi7smTwEA3DtnLk8UJCIKAQzOREQhql9Wf++/x4wbD3B6OiKiTsXgTEQUBjjqTETU+RiciYjCBEediYg6F4MzEVGY4KgzEVHnYnAmIgojTy18FuCiKEREnYLBmYgojAzJyeWiKEREnYTBmYgozHBRFCKizqFZs3mPR2wUjR01VGwiIqJ2MuaWGwEAO3Z9JXZ5vb9iOT5YsRyz58zFvXPmit1EIeXrwv34Z/Eh5FeeRYW9Ck0GD4oIGgBJxgRkJfbGtWmD8LPuueImIWX7zgNiUz0MzkREIUZNcAaAmXdPgcVSiFVr1yMjo7vYTdTpvjy/F387vhFnqy2AsriPTgcwOkcJDdwuFzwe6fnuHZ+BX1wxETf3HC5uGBIYnImIwpDa4MxRZwplf/1xDdbn7wAAxCXGIyYuFgaTUdyMooDDZkddTS1qKqsBAFOyxuA/rpombtbp1ARn1jgTEYUpTk9HoUoJzQaTEd16pCOxSzJDcxQzmIxI7JKMbj3SYTAZsT5/B/764xpxs7DA4ExEFMa4KAqFmi/P7/WG5q7pqTAYDeImFKUMRoN0TMjh+cvze8VNQh6DMxFRGOOoM4Wavx3fCABI6poCjVYjdlOU02g1SOqaAvgdK+GEwZmIKMxxURQKFV8X7sfZagviEuM50kwNMhgNiEuMx9lqC74u3C92hzQGZyKiMMdFUShU/LP4EAAgJi5W7CIKoBwjyjETLjirBkW1YF9tl5QUB/yempoW8DtUbCP2o422EfuhYhuxH220jdgPFduI/WijbcR+qNimpKQYpZcuBbRlXzkg4PeWbNOla9d613Xs6JGA38VtxH28+LvfAipm1fBnsRTiiV/PAwC8+qdlnJ6uA9jtdhiNPOHN36+/egHHK04jI7On2EVUj6XgPK5I6os/3fic2NUp1MyqweBMUctiKcTMu6eIzUQhQavV4rMv/09sbhSnp+tYM6ZORu6wYRg1egxyrxkmdkele794GiX2cqT1yhC7iOopPmdBqjEZ79/6B7GrUzA4EzXi0KGDeOyRhxETE4ORN4/ytp/46Tis1jrv7z169kKXLl29v9fV1eHkiePe3wGg/2VXICYmxvt7aeklXDh/LmCbqwcNCfj9/PlzKCv1jTKmdOmKnj17BWzD29I2t+ViSQlsNhvGjpvgbSs4fQpnzhR4fweAG0feHPD7Dz98j7LSUu/v8fHxyMkNDEjffP0VXC6X9/f09AxckX2l9/e6ujrs++ce7++Q73NKinRyDILcltqaGmg0Gnz+j6+9bWpxUZSO8d233+CtZX/C2bNnAAC9e/fBqNG3YdToMejVu7e4edSY/cXTuMjgTCoVnytEN2MKPmBwJgp9SnDu2asXPli9VuymCHLryBuQkdEdq9auF7tCktoFUILhqHPH2v+vfdj5+Q588flnsNtsAIBrhl3rDdHRVsrB4EzNEY7BmScHElFEU+rYh+Tkil0RidPTdazca4ZhwdPPYOOW7XjyN8/immHX4l/7/onFL/8eEyeMxZI//B77/7VPvBgRhSkGZyKKaAfzpKmO0jOiZwSMi6J0PKPRiNvHT8Arf3wD769eg3vnzEV6Wjq2bfk7nnz817hv5nR8sGI5zp09K16UiMIIgzNFPbHGliLL2HET8MXub8KqbKFLl64BNdvNxVHnztWrV2/MnjMX7636CItf+xPGTfg5ioqL8P6K5bh35jQ89Z+P4tOtf4fdbhcvSkQhjsGZopY4ZRhRqNDpdNDpdGJzs3BRlNDAUg6iyMLgTEQUgbgoSmgJKOVYxVIOonDF4ExEFKFmz7lfLtl4lyUbIaRXb5ZyEIUrBmeKeqV+cwZTZLFYCvHEo/O8JwiGi9raGtTW1ojNzZaR0R1jxo2HxVLIEwVDFEs5iMILgzNFLWVJZnFBDooc27dtxYEwC80AUFNTg5qa1gdn8ETBsBFZpRxNLg/RKR4Z/BI2DHsAE8UOWVP9zTFxwCK/fU3B0hGL8HyLJ/aZgqUjXsLSLLGdOgODMxFFrCKLBYiiOZwbwunpwgtLOdpTD0wdPEVsxMQBizDat8hpq2088jwm7XsHG8WOFlmP+XsWYn6+2E6dgSsHUtTiyoGR74lH58FSKC0/HU5as3JgQ7gUd3iz2+3Y+fln2Pn5Dvxr3z8BAEaTCbfKKxTmXhO4FHxnkVYOLENar9A7xh4Z/BJG4yQOGRNQtO81/NnbcyOeH3YLUuxAL+MFvOcNvDfi+WHjMUiZ4KZuHyZ9L7+WZDyAv2UmIL8yAYMS5cTtOum97MQBi3Bf3AW8t68Mo0cMQy95F+dK5ACc9Tg2eGd2qsOhguexSPqcj0cGv4QrHSeRktgfcajDoYIfkZI5DChZiPn5U7B0xFUoq6zCoETl8sX4fI/f/cl4AH/L7I84ue9QZQIGxfnfr9DBlQOJiELI4KE53tHWcNIW09GJOOoc3iKrlKMzleFfNQm40r/sISMbWbiAow6/NiU02/dh0p6FmLRnKw4Zh2FDwGh1GgYZfpT79+Gcrj+mDpA+9Pqsx/w9+3AOdThU4B+aE3CoYKF02ZIqDMoMLOXolZiAb/csxKQ9vkDtE4NBcVV4T7ldrjSM9t6uKVia2R+o3Crtu6AKWUqwpzbB4ExRS5nHmQugRK5758wNq4VPFK1dACUY1jpHDnWlHFtYytGAjWUXkBLvC8ATU3oANccQcLZL1jAM0hXjc2WEGV9h0bmTqIm5yi/g1uFQsdK/HkfrgDhDU+sD3Ijnu6ShpnKXLxDnv4bP62IwKM0vlNed8RsRr+9cqTJ6/BX+VVMHGFOkeuqsPujlOol1R+Rvqyzv4Nu6gItSKzE4ExFFCS6KEnkanpXjRc7K0RDLMeQb++ARAMCNuCYOyC8LLIuaaEoAXFWBYdpShjL/31skDSk6oMwWeH3nHG2TbieaEgB7WUBJRlvtmyQMzkREUYKLokQulnI0x1f4V00Crh9wo7dM41/1yiGIgmNwJiKKIlwUJfKxlKNpG8suAHHZeEQu0xBPmttoqwJ0Cd6T+gAAGSlI8f+9RYpR5gJSTIG10L0MbVOHvNFW5SvbkLXVvknC4ExR78RPx8UmigC3jrwBM++uP+1UOCgvL0d5ebnY3Ca4KEp0YSlHAyzHkI/+GJ1Yv0wDAJC/Tzjp7kY836s/4up+DHKyXnN8hUWlxYhLvMVXK531OEbH+NdLt0L+mcCTFDMewPXMzW2KwZmilrIAitXK+q9Io4ykhuv8zQ6HHQ5H+40G8kTB6MNSDpF8Up2roTKNr7BonzyTxoiXsGGEPMOG92TB5liPo3UxGJT5Ev424EYg/zV5Jo2XpH2nJgRMR9c66zG/4CSQOF7ad2YC8ivr6tU9U8txHmeKWpzHOXJt37YFr7z0ImaH6awa7TGPs+j9FcvxwYrlYfsYUdvY/6992Pn5Dnzx+Wew22wAgGuGXYtRo8dg1OjbYDQaxYs0KpTncY5WEwcswn2GH1sY+tsX53EmIgoBFnnFwKFDc8QuknHUmVCvlOMZlnKEu6zHsWHE4/KMIQAwBaMTY3CuOvRCc7hicKaol9LG8+VS5xs7bjz++MaysC3VMJvNMJvNYnOb46IopJBKOX7OUo5wl/8aPq9Lw+gRchnICGXFQXFDaimWalDUslgKMfPuKRg7boJ3fluiUKCc1NgRS4VzKW5qTLBSjpzcazB6zO1BSzlYqkHNwVINIiIKK1wUhRojzsqRnp6BvP3/wuKXX8Sd425jKQdFHQZnIqIoxkVRSA1lVo65v3zI2+ZwOLylHPfOmIYPViyH8xJnKaLIxuBMRBFl+7YteJ8nvDULF0UhtS6/IltsAgCcO3cW769YjqJl++ApZHimyMXgTFFl25bNuHXkDQGLY2zftsXbdv/smeJFKMwcPHAAH6xYHlb1ugWnT3mPwVtH3gCLpRAWS2FAW8HpU+LF2gwXRSG1+vTJRFxcvNjspe8WC013rrhBkYvBmaLKuAl3ILNvP7HZa+q06WIThZkiS2FYhWYAyOzbD+Mm3CE2ezV13LYFTk9Hal1+xRViE67IvhJvvv0u0h+5RuwKQzfi+WHKrBTyj3cFwdaQ9rs0S2yncMLgTFGnoXDcVHih0GexFOJA3n5kdA+v4IxGjks00deWOD0dqXF5dmC5xs/vnIg3334XV2RfGdAenm7E88PGI6tmKybtWSj/yCsIDnsAE8XNKeowOFPUaWj0rqPCCbWvjIzuGHP7OLE55DX0wa2h47U9cNSZ1PCvc358wdN4fMHTAf1hLSMbWbo65Jf5r9r5FRadO4kaXQ9ckwE8MlgcgZZGkv82QFrxc+KARX6j1YvwfIayzXgM0gG9Un3b1hvd9g/nGQ/gbyMexyNZjweOfGc8gL959++/2Al1BAZnikpiSG4otFB4ycjojlVr12PsuAliV1gQj8uG2toTR52pKZdfke0tzfj5nRE2BmspQxliMChNKM2wvINf7HkeiyzAn6uLgZg+vsCakY0sXTG+PfIVkPU47kuswufKaHVJFQZlPo5H8BUW7duKQy7gXMlC/OLIV0FHtz+398d9AaE8DaPjz0j9BSdREzMMGzIT8K0yEu5Kw/XeEE4dgcGZotK4CXegZ6/e3t87OpwQBSN+gOvI0WYFR52pKX36ZEZQaYZoPeYrAbXeqLEs/wzOIQHpctvElB6IqzuDP/tt4pX/GibteS14X9YwDMJJrDviG93+8/f7cC7mKr/rq8OhYnkhJMsx5LuAmsp98v6+wr9q6hBnSPNentofgzNFrfE/lwJKfHw8R5spZPh/iOusD3RcFIWimuUd/MI7YlwMIAaDMv3LKNbjaF0MslKkkd5ehhicq5bDbf4+HHL5lrxu7ETAiaYEQNcf9/mfhDhiGHqJGwrKbP5lJNTRuOQ2tRm3G6godcLtEntCU0mJBY/86m5kZw/C/7wQdDwgJJljNIhL1InNUaum0gVrXZMvY2Fl9qyxAIAPVm4XuzrM//75JXz55Tb86pGFGHXrOCR10UPLoRZqQuQuuT0FS0cMA0oWYn4+gKzHsaFLFd7bV4bRI/rgaJBR5UcGv4TRMZBGjQuexyKLVJqRUirtY+KARbgv7gLe2/cONgqXBeQa58weyC+QSkSU0g7l8pDrqe8z/IhJ38vBPcyE45LbDM7UKrU1buzeVokD39bg1DGb2B3SHO4SnK95AfGGa9HN/AuxO6QlpugwYGgMrrslAQNzo2/O1MP76/DdriocOVCHyjLpk5rDXYILtb9HguFGdDFNFi8SVs7V/A4A0Cvut2JXh1EeTwDoEfsMDNpU9Ms2Yej1cRg5LhGxcUzRVF+4B+eGw6yvHlmqT56CpSOuQlllFQYZzjQSXP0vh8Dgm/U4NqQCnwcJ3QCDc2dQE5z5ykct9uWWSiy87ww2vFeKU8dsMBj1MMcaw+bHFGOE03MJGp21Xl8o/5jMBtRUerBnVzXeWFSI/32hCJeKnOLTE5EuFTnxvy8U4Y1Fhdizqxo1lR6YzAaYY41w6n6Cw10CvUFX7zELtx8XyuFCeb32jvxJiO+JlNib4XCXoA7fwGDU49QxGza8V4qF953Bl1sqxaeHKOxtPPIjzunEE/TkemTlBEDAW64xKDHNV6YBOQz7z3QRdJYOmVLW4X9d4uUp5HDEmVrko79cwq7NFdBqNYhNMMMca4RGqxE3C2k2RxH2n5iLtKTR6N/jMbE75DnsTtRV2WCzOpCYosNDz6Sj/wCzuFnEOHnEird+X4TKMhdMZgNiEkwwGPXe/rMlq3Hu4mpclfkSEmMHBVw23Ow/cT8AIPeyd8WuDrf/xFzYHEXIvWw5jLo0WGvtqK2ywu324JY7kjD9l13Fi1AUC/cRZ4lv6jgv18n6o9ANjBj7SjQk55TyDmWEODEGqNsnjxJLJSC+uuZi3/444tzh1Iw4MzhTs33yQSm2rS2HwahHQpdY6HTh+cVFuAdnRV21DdUVdUhM0eE3S3qia7ovTEaKS0VOvLzgPCrLXIhPikFMvEncBD8WLERl7SFcP+DvYlfYCaXgrHwg6dVtBnqnzgAAuFxuVJXWwmF3YtzdybhrdhfxYhSlIiM4q5T1ODbEN1amQU0Jx+AcnomHOs3Rg3XYtrYceoMOSV3jwjY0R5KYeBPik2JQWebCmrcvid0RYc3blxoNzQDQO3UGenWTgh21nd6pM2AypOPcxdWwOYoAADqdFkld46A36LBtbTmOHqwTL0YU8R6JF8o0KCow9VCzfPr/ygEA8UkxYVeaEUzuZcvDerRZERNvgslswMHvanB4f2SFmMP763DwuxqpPKOB0AwAibGDvCOi4e7qvq/g6r6viM2dJjXpVgBAcfkX3jaNVoP4JOn7aOV1gSgqyCv3jcY+b8kERQ8GZ1Kt8KwdR/LqYDQbYDCFfzmAyZAOkyFdbA5bMQlSqPxuV5XYFdaU+6Pcv2hg1HeDUd9NbO40wUadAcBg0sNoNuBIXh0Kz9oDLkMUsZR5nlmiEZUYnEm1Y99bAQCmGIPYRSHAYNRDp9PiyIHIGnE+cqAOOp024ERA6niXyd/MnLjwekC78nqgvD4QEUUyBmdSzXLOAQDQG7j4RqjSG3SoLHOhpjJMVqFpQk2lC5VlriaPOZujKGAklNpeYuwgpCWNRmXtIZRUfO5tV54b5fWBiCiSMTiTatZaNyDXNkaKsyWrUVl7SGwOW8pzEykr6Sn3o6lj7sSF1/FjwTNic9gqLN2IwtKga4l1ql6p98BkSMfZkg+9H1R8x5z0+kBEpF7jr+2hiMGZopbNUYRzF1ejxO+EJwo/NkcRKmsPwWRIE7vCVqgGZ5MhHalJt8LmKAo4UZCIKFowOBNRRAj3RU/CRUMnChK1rSlYOuIlbJB/lmZBXgDE17ZhxEv424AbpW2HPYCJfpd+ZPAiPJ8hX2aw3CfPhhF4WWkREf99bpD3NXHAIvl6ZRkP4G/iioKNEPfrva1Km7KvrMcDrheYgqVNXY9ymREvNXOlwRvx/LCmt2/tfY9kDM6kXvh9o0JRgCOfHS/Y9HREbedGPD9sGFCyEJP2LMSkPfuAVCXsFePzPUr7VuTHDWsiBKYhBWXYiClYmtkD+QX+l71FDtfS6n5S+0K8V9MDo/1DY4OmYGkjoXXjkee9+/y8Tlque+KAq5BSuRWT9mzFIeNVeD4DeCQ+AYcKFuJzew9ckwFMHNAHZcWNzdgxBUtT4XscSoDr5Q8B1P4YnCmqRdJ0dNGqd+oMXD/g7xEzhzMAGA3dYDSEznR0osBR52Kxm6h1MrKRZfefI3k95u/Zh3NyyG2WrD5A9Xogqw9SKnfJS1cDwFdYtE9Zyrql1mP+njO4csRL2DBCGeEOIutxXO/Yhz8D6GUA8su+AvAV/lUDpMQCf66uwqDMlzDaeAH/skzBaMOZgNvlGz1XFKPMlYB0pS3/NfziyFfytoGj0L7f/Ua4Zf4j4gGjy43Jehx/G/y4PHLf8IeGSMbgTFHLZEiPmAVQKLJcnfkKrs4MnQVQglFGnS9WctSZOsJX2GgBgDSM9pYojEdWjRRIGzLRBJTVAhNNCSizSeHSv8xBKdfoleoLmPfFXcDnqhc2WY/5exZi0p5dQK/gAfSReOBbOdgGlf+aNHK87x0gyGjzn78XA/5XWLRPur6AUo2MB3C98STe845Cz8a5Yt+o/Tljil85yxSMjrsgbbtnK8q6qA/BccYqrIvikW4GZyIiajZl1Pn8pQ/hcJeI3URtK2tKkFKNhfJIazHKkIBe3o1vRLqxCkWWG3GNoQr/sgAbbVVIMckhTwmqJb5vS/xLNSbtewcbIVwGAGITgHrfsCh117cA5xbWX0kw4wFcjzONhnsfebQ5Vgn2jYXZr7Bon3x7C6pw/bAHMDE2Aag5ho1QRqE/wEbvvob5PT4AMlKQouuP++QPIIN0fiPYTdz3GuU6aquACDopWy0GZyIiahFlUZRi61/FLqKWsxxDvnGY3+jtFCxNHYYrg4zmSr5CkT3N15+RjSxU4VxGNlIcSpA8g7JEX00zADwS30Toq60C4rK9o7SPxKf5Rq0BucZZCsyT9oijwjIhbJ9zAFkpNwK4EdfESaPhCqW2eaIJOFSwEO9VJgS/zxkP4G/+J0NaylAG4fZmPIC/5T6Dv8WfkcP1SdT478NShjKXPDq9J8jtb+S+xylhOegHicjH4ExEYauy9hB+LFgYUXNxh5PE2EHolngr6pxHcLKAJRvUVr7Con37AG/5hHSiYL3RXD9/Lj6JFGX7zB7IP/cONsYmAN6gux7z9/yIlExfScb1jq3e2uCgLO/gW7syKvsSRsO/7hryPhsIzLKAEhEAG4/8iLLE8XKZiV/NdcYDmCrXNm8sq0JW5ku4L7EKR/OD1Dhb3sG6mh7e27VhxFUoO/cONvq3Z/ZA/oWvkG8cJm3TK0EYlV+PzwP2IYxuN3Lfa4xXSZdJbaIEJUJp1mze0+RKCWNHDRWbKAq993oJvv28Cl0yEqHTRcZnrh8LFiIxdlDEnFhWVVYLa60dv1/eB13Tw3+J6ktFTjwz9wzMsUYkpMSK3ThbshrnLq7GVZkvRdR0dD+dl+qbL+/5lNgVcmqtFhwuWAiTWYO/vPcmMjK6i5tQFLn3i6dRYi9HWq+GzpSjsJb1OP5m2tf4B45mKD5nQaoxGe/f+gexq1Ns33lAbKonMtIPUQsoC2fYo/CrpkihjDRHUmgGgKq6o6iqOyo2hySTIQ0JhhtRXVuM7du2it0UZZKMCXC7XGIzUVBulwtJxgSxOaQxOBNR2JJWDOSUgp2ti2ky4mPT8MGK5bBYCsVuiiJZib3h8XjgsNnFLooEflPftZbDZofH40FWYm+xK6QxOBNR2EpLGu2dFo06V1bmKADgqHOUuzZN+vanrsbvrDeiIJRjRDlmwgWDM4WcUQvTsPQPSWKzerd3wSsru0FN1XJa0mgkxl0tNretZtweap7+PR5ro/r0JDy7Mg3zbxfb1Zvxhwy8sjBObG6Rron/hq6J/yY2qxCH+X/JwNKV8s9fukCKs+1vyIB7kJHRnaPOUe5n3XPROz4DNZXVcNgdYjcRAMBhd6Cmshq94zPws+65YndIY3CmqGUypKN/j8eQmjRa7Go7t3fBKzONiBHbiRqRmXY/MtPuF5ubNGphHHqfrsL8WRbMn1WF4zDi9jYK82qMGTce4Khz1PvFFdIkZhWXyuBxNzn/AEUZj9uDiktlgN+xEk44qwap1lGzaoxamIZJyTbMf7pCDp5aVFzQI6OH1G/ZbcGLb0MeXUvAFfJkC3WHq/DUS3o8uzIG0vncTnw76yJWI8mvDcCFOhX7FkJvrR0bflmKnWK79zqCeLAblo7U4vhuJ3qP1OJAQ9u1oWibVaPtJOHZlSZUrirG0k+l0eOhcAI99PWf/we7YelI5bGVnn/LwjRMGij9TUjHYY10HMttgBvH1exbHrm+Psjx6N+uXEdTRi1Mw6S+zoD9tzWXy41SSyWuH52A+x5Lxcy7p8BiKcSqtes5w0YU++uPa7A+fwcMJiOSuqbAYDSIm8huxPPDxmOQTvqtplKaIm7igEW4L9FvyMF1Eu/tewcYsAijbc/7poXLeAB/SyvDL75fD2Q9jqV4DfPzpaWmR3svXozP97yGP2MKlgoLgZwrWYj5EGeKmIKlw1LwubwQiipZj2NDahqAOhwqkKao890HuQ0P4G+Z/RHnvT034vnB2fjX941dT/DHR42J4mMVjPd2y+THueHb0zoOuwMVl8rgsNkxJWsM/uOqaeImnYqzalCE0COpXBpF+/YCkDFM+vp51MI4XFFeJ4+u1aFiYAxmoAIvrrKjzhto4zD/LzFIOiyPwq2yo66Hye8r+eD7BpLw7Ew9zq6ySH3lyshdEp6daUTFbrn9gh7XN/R1+NsXMX9WMZaeFTsoHMT0AA4ox0ysEdc/COn5H6nFcfm42HBYi6EL47DzpWJ8e8Ev0D7YDZMGuvHtLOU40eKKW3zlR8H3LQXd6yEf06vsSBoplfiMWpiG65Pt2CC3Y2ACnpUv05iMZC1Q7mq30BzMUwufBQAsfulFsYuiyH9cNQ1TssbAYbPj4oUiVJaWBz1h8JHB45FVs1VehGMr8uN8i5T4r+b3Xk0PjA62GIgf7/LaAxZhNPb5VgIsAUYPniJtFLDoxz6gi99CIipNHLAIG5T9AVK47QJpRcOCC8hKmyKtAphYJbWVVGFQ2hRMTOmBshK/hU2yhiGluvGQOnHALcLjM6yR1QRbpqZS2b/0ON8XcN/ahsNmR2VpOS5eKArZ0KwWgzOFATfO5kmja6tPOMVOWQVeDDqiW4Olv7T4Ruc+daEioL+BfT9oQEatEz9+Kv26+ml5Hw8akAEnTsmjgKt32VEXq/WNZlOHsDmK8O2Rn+PHgoViV9u54JCOp09tONvAeU47XyoOPvL79kXM9zseLeXuwP6g+47DVX21sJyQj9BPS/GU/OHvqr5a1J22SQH401IcuAAkdWuiBOPBbri+hxPfPh14xLe3ITm5GDtuAg7k7cf2bVvEbooi/3HVNCzM/aW35vliYTEsBedRfM6C4nOFKD43Dpfpj2DFZ2vl39fioU824h8Vhai2eeCsKZTbfb+L7cUVdnictSg+NwSDNJfwj31DMCimDJu3LvNts/sp/GzrMhSfq4XTbUe10q78XuOEx1bp277edtLP/QOlxUD+3bZR3p/StxYPffIUfnuuEMWeGHiqT6A4Jg7JVUeltt1HcVofh+rTp5Gc+hLuSyxD3u4heM58CZ/s9ruOmNlYOXBcwHW+XVqGOE18veu5Neu/5IVL/gvPxciX9S5mIrV5Hyv/PmH/xd77bkHxOQve/mwT/qXvgfvPWVCcPt+7WMxr6RbcmvVfWJk1FMXnxuG1Ef+F52LkbQY+iOdyfQvLSNtI+ys+Z4Gl4DwuFhZ7a5oX5v4ybEMzGJwpPLhxSQ6w/na+VIxvEeM9EarBEbgHu/lOlvIr2bBVFuLGYcPxxruvCxcARnVr7E9Dj+uV/c00IgZadG3FSWXUcu05f3NdebAPaRV4cZUTvWc2dfJd4El6vpINSfB965EoV6PsP3E/9p+YG9AbMzDBu7/rewAxyY2U4ihlQquCfZhsf7Pn3C+fKPguTxSMcjf3HI53bnkRi4Y9gnF9RuKKpL5INSajmzEF3YxG6KBHnDFF/j0F3Yx78FlBCuI0GvTt+x6+niL9zEs+j12HpHadzm97nR4ajRHdjH2RpqnAZ8a+SEMNLhpT0M04CW/eqezjD/hvoxE6wwDMk/f59ZSR0Fn+is90Omg0MX63of7t+u+x72Fo+eOYuPlxzPxuj9+2vp8HbnoTX/dNQX7xHr/bJe0Ptlq4//NBzNz8OCZuXox3ht+CtPK/4jP/fRT8FTO/3BC430OLMbE82/s47LhpEroZH8LE1Cp8tvlxTPzxPK7MegjddMexbrN0+1Zc1CAtxfdY/XdWX+T/KPfZrsVHw/0fP+W+J8s/Zhigg9n4S3zUVyddx+bvoOv7MrKLz0MTk4luV3aHrroKaT3uwgPxKaix1cGAOnz/o7RtWXIuHpD3l2pMxhVJfTGuz0gsGvYI3rnlRdzcc7h4mIQV1jiTap1Z4+ytD36wG5YOcwep2fSrUYX/ZaT6ZnhrRX3bLam0Yf/yKRiRNBraHo8F7ruh62movTHifWhH0VLjrKwY2KvbjDacVUOocS5X6oilWvrEfX717zL/Y9X/MmJtcUPbBe7b9+8pT0snBuZe9m6j1x/Ug92wdCQarr1vY2KNs+L9FcvxwYrlmD1nLu6dE/ghgEiiR0IMYK9zwuZt0iMGTrh1Rhg9dlSJ1R1GAxI1blTa5EVWlN89WiTAgSq7DnExWrjrHKjzXkhp80AvXh+k60zUA5VW+QOt+LssxmyEUQt4XC7f9dcjX5fDA4N3H3pUen7AjmnP4t/Xrpe2MWvgdAImoxYaAE67HTXBPk8LYsxG6OGGBuLt0yEuRge9RvrN7bTDrjHC6HHBrfO1A8LtFx9P5TlxACa/xyDGbITW6YbWqIHbBcDlgVYPOKGF3u2CW6c85kGe0zDCGmeKaPWn/wo+Mu1v1EKTurKKs27UxepxlTySPOMPGdIUeW87YBFqUpdyqrlOkxTXfiPOQQWZWjD46LG/JFwvjDgHV4NL5UDGZXItdIwOr6xMw/zba/DjaXdg/f1K8diXdXBobsy9c+ZyejpqghNOjxYmk3zmG3SIM2hh0Cm/B+H2AFoNTPKvMVoNPB4XYrSA0w4ALjjdGhjNfgMHeg10fsGxHifg0Wq8sx+ZdFrAU39Msc5qR0WtHTbokOS/f+iREGuQL6+BViPs06hB7zILNiibG7XQup2waTXwOO2ocHqga+A+x5iNSDD6fnd7ALj9b68eCTF6xJt1gEO6ffaAyjAX3B4pmFfUSj8Nh37ptmo9gC3gMdFDr/XA7fTA7dFAp4X0b2hh0Hrkxz16qHk1JwpJq5+uQ4X36+sYYLccFj51oQJ6XL+yG2agAt8ediNjpPQV9+2w4XitFk0uVPRpKZ7a7cYV8lfy1yfbseHpCvmrejuS5P1NGohO+zo8mqUl34qrMl9q11KNoD4txaeHtd5SnUl9nfhUrnG2lLsRMzABryyMw86XbLDEGjFpZQaWrjTg1G4nkKxroKzDZ/XTVTieHIMu3XToEgdU7JZGwHe+VIxvy5X9xSDjQl3Q2uoZl+kDS4kaLSdpf5yejppSZ3XBpdUhKdaIpFgddO7GRnMBOJ1weLQwxxqRFGuEEW5U2XXQwgMlL9psdlg9WnmfRiQZNXDU+o9Ai5ywuzQwytubtW7YGrkNNpsdFQGjvU5UOSFfXgs4Hajz36ce2PHQUnlbPRJ0HtjtAOweQG9Ekl4Dl8sljXQHBHKgzuqWtlFum8aNKrtwfS4nqt0e6I3SNnp4oNH4gnid0w2d3JcUGxjEAUCjUx5/I5J0HlitzgbukwtON6CBB2644PQAGo/vcY8WLNUg1TqqVKOj2BxF3iWbOzyAtZNoKdWIdJeqvgYAdE34mdgVchoq1VBwejoi6e8AAFatXS92UQhhqQZRI0yGdKQmjY6Y0EyRo2vCz8IiNKvBUWciiiQMzkRE1G5Y60xEkYTBmYjCSknF5zhbsho2R5HYRSGKi6IQUaRgcKaoVll7iAEszBSXf4FzF1fDZEgXuyJGdd0xVNcdE5vDFhdFIaJIweBMUcvmKMKPBQtxruRDsYtCmHJCZyQ7fv4POH7+D2JzWOOiKEQUCRiciShsKN8OmAxpYheFuIyM7hgzbjwslkKeKEhEYYvBmYjChs1RHFHTB0YbnihIROGOwZmIwkZi7CDkXra8jZbZps7A6emIKJwxOFNUy71sOfr3eExsJupUV/d9BVf3fUVsjggcdSaicMbgTFHLZEiP+JPMKDwZ9d1g1HcTmyMGR52JKFwxOBMRUYfiqDMRhSsGZyIKCzZHEfafmIuSis/FLgpDXBSFiMIRgzNFtbMlq1FZe0hsphBUXP4FbI4iWO3FYlfEKSzdiMLSjWJzROGiKEQUjhicKWrZHEU4d3E1Ssq/ELsohCXFRf5UdNEQnMFFUYgoDDE4E1FYUL4Z4BzOkYOLohBRuGFwJqKw0Dt1Bnp14/zNkYYnChJROGFwpqjG6ejCR2LsoKhZ+MRo6AajIXKnoxNxejoiChcMzhS1TIZ0LoBCIenqzFdwdWZkLoASDEediShcMDgTEVGn46gzEYUDBmciCnl2VwlsjiKxmUKJR2xoHo46E1E4YHAmopB3vOQR/FjwjNhMEYaLohBRqGNwJtU0YkME+LFgIc6WrBabw1+kPFkawOEuAQCYDGlib8T66fwr+Ol8eNU4a9rgmOOiKBQp9u3dg//89SPen9LSSygtvRTQtm/vHvFiFAYYnEm1+EQdAMDtcotdYcnmKEJl7SHYHZGzEp3bLT038QmR8acdn6CF030RiLL5m6vqjqKq7qjYHJKU1wPl9aG1uCgKRYJhw0fAYDTi4IE8HDyQB7vdDrvd7v3dYDRi2PAR4sUoDETGuyt1iF79jAAAh90ldlGIcNpdSO9pgCkmMv60TTFaaGOPAVGyYmA4Ul4PlNeH1uKiKBQppt49XWzyaqyPQltkvLtShxiYGwMAsNXaxS4KAbY6B9xuDwZdGyt2hbUJ4+9FZvxrMGmuFLsoBCivB8rrQ1vgiYIUCYYNHxF0VLmhdgoPDM6kWkKSDjeMToDT4YK1JjLCc1rSaCTGXS02h6XaKisA4Ge3JYhdYe1ntyXAoE313r9o0DXx39A18d/E5pBjrbHD6XDhhtEJSEhqm1INBaeno0gQbGQ5WBuFDwZnapbx05OhN2hQXVELh90pdocVkyEd/Xs8htSk0WJX2Kkqr4XT4cLou5LQI7NtvjIPFT0yjRh9VxKcDheqymvF7oiUmXY/MtPuF5tDisPuRHVFLfQGDcZPTxa7W42jzhQJxNFl8XcKPwzO1CypGQbM/nUqPB6g8lINbHUOcRPqQB6PB1VltbDW2HHlkBhMfaCruElEmPpAV1w5JAbWGjuqymrh8bRy0mBqFVudA5WXauDxALN/nYrUDIO4SZvgqDNFAv8RZo42hz8GZ2q2EbfEY/avU+F2e1BZWoPK0hrYrQ4wy3Qcl9ON2iorSouqYK214+phsfjVc+niZmFv+7YteOLReTiYtx+/ei4dVw+LhbXWjtKiKtRWWeFyRsYML+HA4wHsVof3b97t9mD2r1Mx4pZ4cdM2w1FnigTDho+AyWSCyWTiaHME0KzZvKfJuDN21FCxiQinj9uwcWUpDufVedt0uvD6LFbrPIKzVf8jNpMgI6O72NQhqqurUF1djS5dusBoNAEAamvcqKt1e0edNWE4abXTXQ4gvEK/x29pQI1GA42mbeZuborH44Hb7YZGo4FW2/mvLy4XZxVqyhe7vxGb4Cj4Eo7z38BV+hM81vLWLzUZZua8I02rueKBbmJXhNNAY06GrsvlMPS8AYbMm8UNQsr2nQfEpnoYnKnVThy24uB3tTh93IqySy64XU0eUiHB5ijBgYL5YjMF0VnBubT0Eux2e73r93g8sFk9cNg9cLk88IRXBoXDVQ5PI8HZ45HCmUbTtifctZYSlDsiMPtzu6UPSlqtFpqOvnIBg3PT/IOz/dQO2A68A1dFAeD90NV+H3fD490nung8Hu9Ahy4pE6ahD8DYb4y4WUhgcCZqhMVSiJl3T8HYcRO8S/1SaLl15A3IyOiOVWvXi10RbebdUwAg6u53QyyWQjzx63kAgFf/tKzeBykKTXX/fAO2H6WVWWPMZpiMRuj1enEzigJOpxM2ux11Vml2JNNVMxBz7aPiZp1OTXDu/O+9iIgaMDQnF7PnhPbsEtT+uChK+FFCs16vR3JSEuJiYxmao5her0dcbCySk5Kg1+th+3E16v75hrhZWGBwJqKQ9eobyzB23ASxmaIQTxQMH/ZTO7yhOSkhAXpdaJUcUefR63TSMSGHZ/upHeImIY/BmaLaUwufxdjbx4nNRJ3ql7+ah1/+SipNIB9OTxcebAfeAQDEx8V1ek06hR6NRoP4uDjA71gJJwzOFLUyMrpj7LgJGJKTK3YRdaqRN9+CkTffIjZHPY46hz5HwZdwVRQgxmzmSDM1SK/TIcZshquiAI6CL8XukMbgTEQhicGIguGoc2hznJdm1DAZI2sFU2p7yjGiHDPhgsGZiEKOMuPJE4+yXIECcdQ5tLlKf4JGo+GJgNQkvV4PjUYDV+lPYldIY3CmqHYwbz/ffENQUaH0nAwemiN2RYUjh3/EkcM/is0kU6aPXPzSi2IXdTKPtZx1zaSaRqORF8QJHwzOFLUslkL856Pz8MGKd8Uu6mQHDuQBAIZGaXB+4b8X4YX/XiQ2k2xITi7GjpuAA3n7sX3bFrGbOpWn3RY3oUjV5HIiIYXBmYhCTpHFAsgBiSiY2XPul0s23uW3RkTUYRiciSjkjL19HP74xjKxmciLi6IQUWdgcCaikDMkJ5ejzdQknihIRB2NwZmi2qq1670nGhGFitf//CZe//ObYjMFwenpiKgjMThT1MrI6I6MjO5iM1GnS01NQ2pqmthMQXDUmYg6EoMzEYWUg3n78T5DEDUDR52JqKMwOBNRSPngvXfxwYrl/DaAVOOoMxF1FM2azXuanEBv7KihYhNRWHp/xfKA3w/m7UdGRnekd/eFtLHjxjO0daJbR96AjIzuWLV2vdgVsbZv2xoQ+I78+AMAYMBVV3vbMjK6Y6w8skr1Hczbj/98dB6G5uTiVc7I0mkq/99d0NQWISU5Wewiqqe0vByITUfiv38idnWK7TsPiE31MDhTVCk4fQr3z54pNnuNm3AHFjy9UGymDqIstT123ISoO2nz/tkzUXD6lNgMAMjs2w/vfrBKbCbBKy+9iO3btuCphc9i7LgJYjd1gMr/dxdQW4QuIRecp8I8+SHojGfg/GgObGJ3oxYgZvqN8ORNhPWY2NeJspcgNudyuEPtdjVDOAZnlmpQVMns2w/jJtwhNntNnTZdbKIO5P0GICND7Ip4jR17jfWRDxdFoQYNHw8dzsBt7wPdqKliL5FqDM4UdRoKIeMm3IHMvv3EZupAY8dNwKq163HvnLliV8Rr6Phr6sMe+XBRFGqIqVsfeMq3wlleDU3yCBgCehcgZvoXiBnuazGM2oi4yUtgwALETB8HLeKhy/HbZvgKxE3/Qv7ZCHO277LBGEZtbGR76fq9/eMX+LqylyDWv6/eZf1NhXmy37aTl/juZ/YSxE5eAvP4INdBzcLgTFGnoSDSUKAm6ijBjsFgbdQwnihI9S2ANrEa7vPr4Dj/EzzGy6FrMHyKlqDuo21woxquvFtRt1cOzVld4Mq7FTUf3Yqa/FLochoJtMNXwJhWCudH/tuvgAmQw+44aIrfkvo+egsu8zjEjpoql2LkwJMvX+6jt+Cyx0N3lV8g9pJKUbTlyn5uhdOaA6N/QDbmQGuV+7cu8b8wNQODM0UlMYw0NNpH1JHE47ChD3nUOE5PR/4Mo26E1v4TXMcAHFsAV2U8dP1bOuI6FeZefeAp/puvrnjvHDibs8+9c1Cj1FkPHw+d8QxcO9fJnetg/fhW1O5cBxxbgNqP5LAu97nKq727CTB8PHTIg8O7H8C2dRvciTf6BXrpwwO1DoMzRSUxkIhBmqiz+B+LPC5bhqPO5DMVuuR4eMr3wCG32C6eARKvkkd8mysTGiPgqQ4MoG5rA4EWAPZuhcveB3q5hCKgJCS+C2C/BLf/9vX4SjmMafFiJ6Dsx5gDY0BZxziGvHbAx5SilhJKxFE+6hwH8/Zj5t1TsH3bFrErqijHo/jhjpqHo84EKCO6gCbtIV+gzOoDoL1OEhTqlScvgUEeRa756FY4KwFtVlO1ygplX75SDntxIwHdnge7Ug7i/QnfGTdCFaejozZx6rgNJRccqK5ywdPkERU6tmx/HSOGTUa3rn3ErpBlNGiQ3M2AXv0MSOmmF7vD1vsrluODFcvxxzeWYUhOrthdT3WlCxctTlRXuuB0htFBp8KevdsAACOGjxO7OoVGA5hjtEjuqkd6z/rVlaFq5t1TYLEUYtXa9ZybvYOE2nR0pvFfQI9t9Wp6TeO/gN6cB/vHC+CQTwBEvq8swjBqI4zJP/n1K9PR+WqJa/3KIhq6nuD89lE9HnFZCD5F3vAViOt1Sb4NkoDb5T8dXdKKhveD0J26Lhyno2NwplbZ+2U1vt9bA5u1ycMoJFXVnEdCXE+xOWz0zjIh92dx6NXPKHaFHWUO3i92fyN2BbhoceLEYStKLMpbSeRxuZ0AAJ029D4YGQwa9Ms2IXtwjNgVcrgoSscLreBcPxB7BQRJeY5nqxJ85Zk07P7B2m8eZ+/JgQ38LhouhNog1+0fxL0h/OJVgZcbvkIaLVduV5D9+O6DcL0MzqowOFO7KS50YOfGClwqdkKr1cJg0kNn0EGr1QAacWtqU24PXC43HDYXnA4pYF3zb3G4blSCuGVYeeLRebAUSqODDTl6sA4//WgFAOj0Wuj1Omh1GmlIlNqPB/B4PHA53XA5XHB7PEhM1mHIdXFI7qITtw4pXBSlY4VScDaM2ijPZhFsFFYImvIMFtIryRk48wG932ivafwX0CcCnmI54CohFgBQ3XBolimXV7gDwrwy5Z3MG9iFy9nzYD/XFUYlpEMMw8J+4LfYC4OzKgzO1C6KCx3YtLIUNqsHphgjTLHh89VtpHE53KirscHtcmPwtbG4cZzfK3OYUWqbGwo3P+yrxanjNmi1GhjNBuh0PEWjs9htTjjsThgMGlx3a0JIh2eLpRBP/HoeAODVPy1jyUY7C6XgTKEvHIMz33mo2XZurIDN6kFMnImhuZPpDFrEJ8ZAp9fh+3/W4tA/68RNwsbYcRMaDM2nj9tw6rgNOp0W5lgjQ3MnM5r0MJkNcDg8OPhdjdgdUrgoChG1Jb77ULPs/bIal4qdMMUYYTCHXv1lVNICMQkmaDQafPtFJWzWxic2CjcOuwdHDtRBowGMMQZoWJYREvQGHQxGPSrLXTj2fWh/YOP0dETUVhicqVm+31sDrVbLkeYQo9VqYIoxwGH34Md/hXaIaa6CEzY4nR4YjHpoGZpDitEkPSenjtWvIA01nJ6OiNoCgzOpduq4DTarBwYTR5pDkdEkfZjJPxr6IUZksRQ2OBJoOSvNnqE3hG4dbTTTGXRwODwoOh/as5xw1JmI2gKDM6lWckF6Y9QxwIQmLaDT61B03h5Wc2lDnm9XOYHLn8cDlF1yQqfTskQjROn00ttI+SVphpdQxlFnImotzqpBqu3cXIEjeXWIT46VpgCjkFNXbYPD5sS9j6YiPik8PuBYLIWYefcUjB03AU8tfDagr67Wjc8/qYDeoIPJzPKgUOR2e1BXY0Of/kYMGREndoccZVEUzq7RPty1xfjL3U7OqkGqcFYNimjeUUxm5pAXTiPOB/P2AwDSMzLErrC6H1FLfj0Il+fqqYXPMjQTUYtxxJlU+2JTBY4eqEN8Sqy00AmFHGXEefavU5GQHB4jzo0ttV1b48YXGzniHMrcHg/qqm3onWXE0OtCf8SZ2ld4zeMsLhgiLkzSOoZRG2E0f6VyGe4g/BctqbfYSWTgiDMRUTPdO2cuVq1dXy80ExG1m+ErECcvx13zkfyTlwdN1heIHTVV3JrIi8GZiDodvzonoo6zADFZfeqPLh9bgNr8M9CkjYfJf9vpXyBO/vEP1YZRGxE3fgnMk+v3S8t9xwOJ4xA3eQkM8vLZMaOWIHb6F4ibvhHmbMhLf/suHzd+gXf/jRMuJ18HII9UT14C8/jm7pPUYHAmIiKi6DH8KmhxBu5gJRl756DmozmQJvWUSjk0xW/Jo9Lb4El7KHBEOjEHmnPyiHX+GWjSfgFzNuDYORH24mqgchtqPl4AZbJGbVpXuD66FTUfTYT12FSYJz8EnXWbvP+34DKPUxF0pctpy5XbdSuc1hwY/S9nzIHWKve3tFSEgmJwJiIioqhhiO8C2C+hqTVWDaNuhNaeB8fOdXLLEtSJI9L2PDiVAL73R7gRD02S0hlE5Y9yKAcwfDx0xjNweoPtOlh/zIMn8UZ5NLoBw8dDB//bBdi2boM74HLVcJ/39VPbYXAmok6zfdsWPPHoPC5IQUQhR2uOB6wW72gxAKDiEpqcUUGloAH+mKXJ/RviuwDGHBj9SkjihJMcqf3wcSaiTnPwwAEcyNvPGmci6jCO6lLA2DW8A5A9D3blpEbvT2TNuBGqwvq4IaLwVsSFKIioo+39EW70gXa42CGfWCefuOe2VgPmDN9JdwCQ1LXNljIIGuCzM5rcf9DLUYfh405EncJiKZRGm7szOBNRR5JqlbVZXyDGPzxnL0FsTg40lV/Begxw7PwKbmMODN6TAaXZODzFW311yq2xdytc9j7Qe0/qmwrzVb7rb1C9yynT663wmw2E2guDMxF1ioyM7hiak4sxt48Tu4iI2tfeOd55m711wjk58OT7z0KxBHXyTBpKHbGm+C3U+p2U1xjH+Z/gSRzXSKBdB+vH8kwa079A3HR5ho0mZ8FYB+vH2+BOVC73BeKyAKd3NhBqT1w5kFTjyoGhLxxXDmwMVw4MfVw5kPyF18qB1Nm4ciARERERUYRicKaQkzOtC+bNjReb1RuWiAefTMYosb2jDUvEg092xbwnu2JeKNweakQMRk9LxL81NndqE3LHJeHntwT/QrZTZMfh5628T0REFIjBmahdxOCuG/Qo2XUJyxZfwtdntBj460TkiJtFMc7d3J5M+Ler9IGzARARUauxxplU66ga55xpXfCzeDuWLa+WRm1v0aK2VIeULlJ/2aFLWPUppHD661j0kgf5bGdq8fYaHWY+aUIKAMCFw4vLsRPxfm0ASm0q9i2PGN9ikE7qsDnw9Z8qkSe2e6+jCfJ1nVSzbSuES42zxVKImXdPwew5c3HvnLlit1fH1TjHYPQ0A6wHKvF/x6TR4x5wA4laKXw6nPjh4xr8BADDEzCpnzLm4EbBmipU3ZKIq9OkvwlHsRV/32XD5X5tgAclavYtj1xnJkr/rjpVgc/lVcn825XraMjltyQi2+wBEjUol6+3vbDGmfyxxpmagzXORO1Ch9jqWixbfAmHS4GUK6SR25xpMehVY8OyxZewbLENtX1MGIVqrNrlgM0baGNw169NiD0jXX7ZLgdsXYy4a1jj+wbiMfMW34jx4RoDhk2LkdsNqD0kt5fqVI0k5/TXw2Rzo0zsiFIH8/aLTSHHkAhcWFOBDQeccBj0yBwOKWD306DkQAU2rKnAD8Ua9LjFhJ92VaKg0i/QDk/A1WkeFKyRtiuo1CA1K6aJfUuBNxN2bJD7zP0SkKu0xzjxg9yONDNGB5uDFlKJRnaaBxfym1pQmIiImovBmcKAByUn6wAAO8+7xE5ZNVYFHc2twyd/uoS310iXxz43agP6G9j37Xqk2Jwo2Cf9unO5vI/b9UiBC4XyqPTOgw7YTFrfaHY98Zj5ZFf8rI8GZcflEWuCxWIBAAwd2tRHjk5U6cR+ADjmRHnAmrs+P+2qDD7yu7cKG9ZUSZcHUGUVvtgLum8T0lM0qLokH6vHavD3NVXYL7c7ypzSqPSxGlyoBMxxweupc7P0sJ7yXTcRUahqv++u2w+DM4UBNyrlAOsvb00pDsMkn3zXFTNvF7eQ3Z7s3Waef8kG0OC+c5Ia+9PQYaCyv1sMMEGLRO8Itqgaq+QRcQxq5DZGme8PSB8hhuTkil0hw2ENNmJbh88PuJA8NAmTpiVh0uQ4XC5uAkg1xpPlbaYl+ZVsSILvW4vGqlEMaWbv/jITAYM5yDE6PAGZsHvLO4iIqG0FeeUlCh87l0slE1Iw7eJXgqGIx8xBOpTJpRXLFttUlUvkVQQLNjKbA18vVvZ3CcsWl+KTIOE7kAs1NiA2yfd1fTSbfd/9+OMby8Tm8HCsBn+XSzB+KNPh6nH1n9PLbzEhFXJpxZoK/FDc5KkkANywNjCyDbneeYO8vw1rKrBhmzwy7Se3qxZINEoBe6geBmiQOpQzaxARtRUGZwpbo+Z2xYPT/ENL8NFjfznTjI2UVfi56IbNpEemHMRHze0qTZH3qRNlJgMGyiPHOdO6NDDVXDxmPukX5IcZkGrylYVEuyE5uSE92tyg7Dj8fJpUd6wIPnrsLwaZwohzcDbU1gEJXeVj2judnA1FZR4k9FJGt2Mwelrwqe/2b/ML1geccPidlEhERK3H4Exha+dyG2r7xHpLMHBIrnHe50YtdBj4ZDJGoRqHz3iQMkgqrRgGO87ZNIjrJu5NsK8Sbx9yo9ct0uUGxjnw9fJqqfRilwOx8v5+1gc4tytYbXU1Vu1yIlW+/LxbDKg9pGZkmkLasRocK9YgUynBSHHhmFzjXGX1wJBmxs9vMeGnXQ5UGfS4eloSJk3To/SUG4jRNlDW4bN/mxUlMb4RY+spKfT+tKsSBXXK/oxIqLQHr60mIqJ2xenoSLWOmo6OWi5cpqNTq+Omo6OW4nR05I/T0VFzlJWXw8Pp6IiIGnYwbz+2b9siNhMREYU8Bmci6lAfvPcuPljxrthMREQU8hiciajDWCyFOJC3Hxndu4tdREREIY/BmYg63OBQXviEiFqB57+QetJJduF1zDA4E1GHOZi3HxkZHG0milQaczI8nibnHCACAHg8HmjM4XUiKYMzEXWYseMmYNXa9bh3zlyxi4gigK7L5fB4PHA6nWIXUQCn0wmPxwNdl6Ym6gwtDM5ERETUJgw9bwAA2Ox2sYsogHKMKMdMuGBwJiIiojZhyLwZuqRM1FmtcLpcYjcRAMDpcqHOaoUuKROGzJvF7pDG4ExERERtxjT0AQBAdU0N652pHo/Hg+qaGsDvWAknDM5E1CG2b9uCJx6dx8VPiCKcsd8YmK6aAafTiYqqKo48k5fT5ZKOCacTpqtmwNhvjLhJyGNwJqIOYbFYpDmcOasGUcSLufZRb3gur6hATW1tRJ8w+MyGWqz4xoqvTzpQUuUWu6Oe0+lETW0tyisqvKE55tpHxc3CgmbN5j1Nfo8ydtRQsYmi0BebKnD0QB3iU2Kh1YbXvIvRoq7aBofNidm/TkVCsk7s7lRPPDoPB/L244vd34hdDaqtceOLjRXQG3QwmQ1iN4UAt8eDumobemcZMfS6OLGbopz91A7YDrwDV0UBAECj0UCjibz3j4/2A2v2++5X1zggqyuQkehBeR1QXKXBy3c2Gbc6TXs9Ix65NEMp2dElZcI09IGQHWnevvOA2FQPgzOpxuAc+kI5ON868gZkZHTHqrXrxa4GMTiHPgZnUsNR8CUc57+Bq/QneKzl3qUvIsU/T9nw+80VYnOA/5mcjKt7GcXmCKeBxpwMXZfLYeh5Q8ifCMjgTG2KwTn0hXJwVmqbx46bIHY1iME59DE4EwGHD/+A+Q/9h9gMABiSk4s/vrFMbKYQpCY4s8aZiDrE2HETmhWaiYhClcVSiIN5+/H+iuW4deQNDYbme+fMZWiOMAzORERERE2wWArx/orleOWlFzHz7in4z0fn4YMVy5GR0R2z58zFVVcPCtj+3jlzMZurpEYcBmciIiKiIJSw/MSj8zDz7in4YMVybN+2xRuWV61dj1Vr1+PeOXNxzbXDvZebzdAcsRiciajdWSyFsFgKxWYiopCjhOWZd0/xhmVlKk0xLPtPr3nFFdmAHJrvZWiOWAzORNSuLJZCzLx7Cha/9KLYRUQUEpSwfOvIG7xh2WIpxNCcXMyeMxdf7P4maFj2d/kV2QzNUYDBmYg6xOChOWITEVGnEE/uU8KyMqr81MJn8cXub/DqG8tUB+Fuqamqt6XwxeBMRO1q+7atYhMRUYdr6uS+P76xzDuqzBmAqCEMzqSaTifP3SyvAEQhSH5qtMpzFUKGtmDEWau8QvGYC13yc8O53SkUNefkviE5ueLFierhAiik2v6va/DtF1WIiTfDYAqtxTVIUl1eB63Gg18+ky52dSqLpbDBusCmbF1TBo9Hg5g4k9hFIcDpdMFW58CAoTG4bKBZ7CbqcBZLIbZv24od27YGnJSckdEdY8aNx9hx41v8ekSRjQugUJvK6C2t3OZ0OMUuCgFulwdulxs9+obekq6teZPqmmaA2+2B293kZ3zqBC6nGwDQJVUvdhF1mLY4uY9IDY44U7N8+L8XUXrRyWW3Q5C1xg671YFb70zClUNjxO6wdTbfjgPf1cBg1MFo4rLboURZbjshUYubf54kdhO1G4ulEEWFhThwIA8frFjubVdGlTMyMlinTM2mZsSZwZma5XBeLXZtroTBqEdMAr86DxVOhxu1lXXomqbH9Ie6id1h7x9bK1FZ7oI51gidjl+UhQpbnR1OpxtDRsSiT3++HlD7UkowiiwWbN+2xduuhOWhQ3NYp0ytwuBM7eLTdeU4ecQKo8kAc3zolQVEG5fDjdoqKzweD+6cmYLeIRRgtm/bgoMHDmD2nPtb9fVoSaED3+2qhkYDmGIYnkOB3eqAw+FC995GDLsxTuwmahNKWP7+QB4O5O33trNemdoDgzO1C6fDg7+vLsP5Ajt0Bh3MMUboDAwyncFW54Ct1g4AuHlCIq66JlbcpFM98eg8HMjbjy92fyN2NVvBCRu+31sLADCa9DAYWVPbGVwuNxw2J1wuN7qm6THilnjfjDtEbYAn91FnYXCmduPxeLBzUyWOHqwDAOj0OugNOqnume+h7crj9sDlcsNpd8Hj8SA2XouR4xLRf0DozWhw68gbkJHRHavWrhe7WqTwrB0//LMWVqsHGo103Gm1Gmg0POjam9stnXzqckknA/buZ8SQ6+LAh57aghKW/euVAWBoTi4GD83hwiLUIRicqd0VnLDhh321OH3cJnZRO0tI1uHKITHIuT4OBmPopReLvNT20JxcvPrGMrG7xZxOD/KPWHE2347aGinEUcdJ72lA38tNSOvBEzWp5XhyH4UiBmfqMHabByUXHKipdsPtavKQolYwmDRI7qpH17TQLlWwWAqx+KUXMeb2ce32BlhV7kJ1lQtOh9hDbUmrBUwxWiR10cFgCL0PaRQeeHIfhToGZyIiIuo0PLmPwgmDMxEREXUontxH4YrBmYiIiNodT+6jSMDgTESdxmIp5KgSUYTiyX0UiRiciahTKDNqPLXwWb55EkUIntxHkY7BmYg6xfsrluODFcsxe85cfkVLFMZ4ch9FEzXBmcu9EVG7GTo0R2wiohBnsRTi/RXLMfPuKZh59xR8sGI5DuTtR0ZGd8yeMxer1q7HqrXrce+cuQzNFHU44kxEba4tl9omovbHk/uI1I04MzgTUZs7KH+ly3pHotDEk/uI6mNwJiIiIoAn9xE1icGZiIgoivHkPiL1GJyJiIiiDFfuI2oZBmci6nDbt21BRkZ3fuVL1IF4ch9R6zE4E1GHu3XkDcjI6I5Va9eLXUTURnhyH1HbY3Amog6lrBg4NCcXr76xTOwmolbgyX1E7YvBmYg61MG8/fjPR+dxxUCiNsKT+4g6DoMzEbWbfXv34OkFj4vNATZ/+jliY2PFZiJqBE/uI+ocDM5E1K6eXvA49u3dIzYDAO6dMxezOepMpApP7iPqfAzORNSuGhp1jo2Nw5qPN3K0magBPLmPKPQwOBNRuws26swaZ6L6eHIfUWhjcCaidieOOnO0mciHJ/cRhQ8GZyLqEP6jzj+7cSSef/FlcROiqMGT+4jCE4MzEXUI/1Hnl/6wBMOvv0HchCii8eQ+ovDH4EwUxhx2DzxN/nWGjrsnj0NVVSXe+9v/E7tCllYD6AwasZlIFZ7cRxRZGJyJwokHuFjsREWpE7XV7rAKzQDw8iv3o6j4jNhMFPF4ch9RZGBwJgoT5ZecKDzrgMMu/TlqNBpotOE1ElpaasGn2z8Qm0Nc4Ki+3qBBbJwWOn14PfbUOdIzMlivTBRBGJyJwkDRBQeKzjkAADq9FjqdFtAwuHUkj9sDl8sNt8sNAMi83ISkFJ24GRERRTA1wVkrNhBRx7lY5ETROQc0GsBg1EOn1zE0dwKNVgO9QQe9QQrLBT/ZUFsthWgiIiIFgzNRJ7HVuXGhwA5oAL1RH3alGZFIq9N6w/P5ArvYTUREUY7BmaiTlFicAAC9XgcNR5lDhlYnlcvU1bhRWiI9R0RERGBwJuocbrcHpSVOaDQaaHX8Mww1Wr30nJRdZHAmIiIfvmMTdYKaSql+VqvjSHMoUmY1qalyw+0Se4mIKFoxOBN1AqtVCs4s0QhdWvm5scnPFREREYMzUSdQRjGZm0OY/Ny4XE3O2ElERFGCwZmIiIiISAUGZyIiIiIiFRiciYiIiIhUYHAmIiIiIlKBwZmIiIiISAUGZyIiIiIiFRiciYiIiIhUYHAmIiIiIlKBwZmIiIiISAUGZyIiIiIiFRiciYiIiIhUYHAmIiIiIlKBwZkoQnUfGIsRQ0xiczOYMPi6WAzoLrZ3rKwhcRhxXQyy/Bu7mzFMbCMiImpnDM5EFAa06DLQIDYSERF1KAZnomggj9AOHhKHEddJP4P7K50GDBjmax820CC36REDDRIzlVFnEwbL24y4Ls5vNFu6/OAhMUH6xMv5jRJ3N2NYsPYgXHVuINHQ6aPfREQU3RiciaKGFkaHHXu+q0FJHRCTYkZ3AN0HGpDocGLPdzXY850T9kQ9suDAkX1O1MGDyoJaHCmUgrSxUrr8ngIXXDG6gCAbY/DgzHc12FPiBrx90uVQUoM939XgTKUGqUNMUpjO1MEut5fUaZE6TLo9QTmcOF8JJKa1pvSEiIiodRiciaKGBzVlDgBAfrVb7JTZ8P13dcgXm+HAkX012HdYujwKPbALW7hqXSgEgJNu1CmN3XWI07tRfVL6tfBwLfYctAH9tYiBrz2/2AWXXoMY5XJBFB52oS5G7zdSTkRE1LEYnImihge2QrFNCrMl0Acp4RD09yvFuE5fL+TabXKo9hergU5s89IiVdlfpg46aGBqcMgZUqgvcXtHyomIiDoagzMRIf+gVDKx5zsnkBpsJg0TBqdqUSeXVuz5zukbVW5MrQcusU3hdEmlHd6fWhwJEuwDnHSiEjr0TNOIPURERO2OwZkoymUNUU4IVAQfmfbXfaCu3ohzUIUe2KFFvDyK3X1gLEYMM6P7STfq9Dqk+rc3cYKgxIEj511AjLaRkWwiIqL2weBMFOXyDzphTzR6SzBQotQ4u+FwKrNq2FBS6UFMqlRa0RMuVDo1MMSKexPZ8H2BC0b5cn0SPSjZZ0VhvXagsiBYbXUQhVacr/SIrURERO1Os2bznibfgcaOGio2EVErFJ13oOi8AwajDhotP7+GIpfTBZfTjawrTYhP5Pg2EVGk277zgNhUD9+xiYiIiIhUYHAmIiIiIlKBwZmIiIiISAUGZyIiIiIiFRiciYiIiIhUYHAmIiIiIlKBwZmIiIiISAUGZyIiIiIiFRiciYiIiIhUYHAmIiIiIlKBwZmIiIiISAUGZyIiIiIiFRiciYiIiIhUYHAmIiIiIlKBwZmIiIiISAUGZyIiIiIiFRiciYiIiIhUYHAmIiIiIlKBwZmIiIiISAUGZyIiIiIiFRiciYiIiIhUYHAmImqMRmwgIqJoxeBM1Al0eimNeTxiD4UK5bnRy88VERERgzNRJ4iJlf70PG4m51DlcXug0QDmGL5MEhGRhO8IRJ0gLkELvV4Dl9stdlEI8Ljd8Hg8SEzWiV1ERBTFGJyJOkmXND3gAVxOl9hFnczllD7QdEnTi11ERBTFGJyJOkl6TwOMJg1cTjfcLo48hwqX0wW324OkLjokJHHEmYiIfBiciTqJRgP06msEADgdLobnEOByuOByumE2a7zPDRERkYLBmagTxSfp0PcKE7RaKTw77U45QPOkwQ7j8cDlcsFhc8LlciMmTou+2WbvzCdEREQKzZrNe5p8hx47aqjYRERtyGZ1w3LOgYpSX72zhrmt3Xm8/5Gkdjege2+D3xZERBQttu88IDbVw+BMFELqat2oKHWhttoNu93Nged2ptUAxhgt4hO0SOqqh8HATytERNGKwZmIiIiISAU1wZk1zkREREREKkT+iLPHAw/XNSYiIiJqVxqNJqxP0FEz4hyxwdlurYOtthputwsaLQfWiYiIiNqTx+2GVquDKTYeRnOM2B3yojY4W2uq4XJY0bVrV5hMJrGbiIiIiNqBzWbDpUuXoDOYYY6LF7tDmprgHHFDsS6nA3ZrLbp3787QTERERNSBTCYTunfvDru1Fi6nQ+wOexEXnO3WOiQnJ0l1NkRERETUoTQaDZKTk2C31oldYS/igrPL6YDRyKVyiYiIiDqL0WjkiHO44GgzERERUeeJ1CwWkcGZiIiIiKitMTgTEREREanA4ExEREREpAKDMxERERGRCgzOREREREQqMDgTEREREanA4ExEREREpIJmzeY9HrFRNHbUULEpZFWXX0Jqt65tsgjKpgNVqLK6vb83Z07CeJMGdw5NEJupg1WUu/HdP2rhcvnamvE0Iq27HtdcZxabiRr11aWDOF9X4v29Oa8dOmhxa9owpBj4+kE+juMb4LFXen/XQP0xBWMCDFdMEluJ2pXdbkfJxUuIT+4qdoWs7TsPiE31MDg34K0vy7D5YLXY3Cx3DInHQzeniM31bJ2twQRsgeeD8WJXC53Cq4OysP/3Hqy6w69580xo7lzt1wBgVmPX28B+wsiS315CQX7rVi6675HkZoRn6TFbkNPY49qEzTOheSYX+YcG4DnNAuT+dBhPXCZu1IgTr2Lg5fuxxPMCjrTB89fS4/PU4oHIOrSk2ZcLd19dOog/nvhIbG6Wy+J6YfHVj4jN9ZxaPBBZTx3BgFfycfjJft72rbM1mLByAJY099jBVsyUj7nJG5r3/LXV863cJ4V439TYOluDBYOaf7lQZd+/DI7jG8TmZjFcMQnG3Hlic4O2ztZgQt4S5B96Ak09ih3+eHtfI5u+bUGdeBUDL18A5ShryTEG+L/WroKqo761r+1hJlKDM0s1GnD6UuvCFtpoH21vBrZ4PPB4PPB4tmDGygV49YS4TeRobWgGgOJCp9jUsBMfYzlmYEbeKmwV+5ptPFZ5WvDCemS//IbQD08cal1obo0jh3zhJ5r4jzS31Imac2JTw64eAAQ81luxaqXfr83iO+aa+/z1e/Jwq0MzTryKCU8BS36SX6N+WgI8lYWZm8UNG3MKR/LEtvDmLs8Xm5qtefvYilUrZ2BGznJ83OT7Q5g93ptnQnP5csxVjjFPPuZ+kIWBi0+JWzbN+1pL0YTBOaRtxUyNBhqNBhrNTF8Q2zxTbpN+lDeVrbPltkHPYb/fXtQ5hVcH+fapGfQqxJcR7/79bs+pxQOhmT3TdztnK7fSf38DveH81OKBvn3I2/rvo0UvXiHk1IblwOwX8MLsPCzw3petmKkZiFcXK8+b/HhsngnNoFfxqvd5Ex9z+XIn5JGNes9NsOdsK2beuRrAakyYvQKvDvIdHwHHTZDHPvD5C0a6vpmzffupd+wp+9g8ExNWAlg5QdrG//Z7n2fp/s2crRwTvuMk2G0N/HvwbVvvujuZphllGW0iZy7m+n9Q27wKq2fNwAzvBsH+Fht67OVj7q/C89fkPmZixeKB3udeM2gmZirb+x3Xvtcoqb9eID6yH0eQgwHKh8XLnsBhjwer7pCPPf9jWTne/Y6rmZuBU4snYMEPwJGnJuDVE8Ffc4L+7XmPOb/jMFptXoXVs2Zi1dQcLHg+8DXd+xotP4a7hce7wfctPwHPSdDXswb+voPtL+C1Re73PwaF14St61ZjwCtb/AYk+uGJDflYolSyBHvtCXpM+7/Wbg3yPtb046Dwv4/SZf1fa3k8hhoG55B1Cq8OmoC8V/Lh8XiQ/0oeJsgvMFsxU/6k7EH+KwOwep0SVOTR5A25yPtB3J9iNSZ4/5gnAJvkEc0TRzBgg99I9A/iSMNWYKrvE/qSq1djlfImthKYKY8ODZBHsE8tnoAFWIJ8jweeTTlYMEl6Y8r6YK7U5snHkjzlTdm3jxZ9XRYyTuHjD3Kw5Ml+6DdpLvDBx35B+AgWHJKet/xXID0eAPDDAuyfKj8eWIAJQT84nMKrkxYA8rGwJUfeLuhzNh6rNs2Qvln44GbfLk68ioF35skjedJj730DDPL8NWa1fPzlvzIAq595FadOvIoFyrGnfIsxYBW2zJJKgVbdAZw6MsD3TcemGTjifWyOIG/QFul+zToiv0lLb0gzNvkfJ9LfAzYp+5CPqWDX3cTtjzwDMCDH9/e4dd1qzJg609u7dbZcOqQ8bpcrb+LBHnvZqMDnr+l9rILf0Qb8kIfcDcpxuQDPbZbCR5OvUXeswpZZvtcoX7Duh8mzByDvqHTUbF23GgNmTwYWL8DqWcrtmoHVz7wKPLkFS66GFI6ONPKa4/3bk25j1rqZ8mvbESzfEOzvMHpsXZeHJYvGA3fMxIyVjX971tv/8b6s4fctn614zvutgvS695zygUd8z2jsfUfe10y/0eP8V/IwQQm7yjEY8C2I9G1MzpXC+8xl/TD+sn6Nv07WO6b9X2vl6/C+j0HF4yA5tXigVAonv4bleD+AKK+1LfjWkdoVg3PIOoL9PwzA3EnSH3i/SXMx4Afpa6Hxd4z3fipWagG3rlsNzJop1VldNhlzrw7cm09gqQbulN+cLhuP8Zcpn/gnQKiEBjAe4+9QPhlnYYH/m97VuRgAAJcNQI7cdOTQEQyYPVmqP7tjFTyHngCO5gE/LECWxreP1evkFzllH+HsxMdYnuP3HMD/w8cA6Y1IeC5x9RK8cAe8wSD41+OBx8L4D+QPGE0+Z36O7MeRq+di8mWof11Bnr/GDBgkPVP9rpS3vmwy5l4th53ZCFpe0u+O8einjAwJdfbKm5iyX5w4gjzMwEz5cZHKTY5g/w/A6jvlD313rgZ+WI6P0fR1R4PxU2fIf0vSV+zSYwcoX6PPmCq/sd8xEzOQhyPycVnvsQ9K3T4CKaPGA5ArvxapfY0a/4H8+vTTEuTdqfGOuPk+jJ7CkTzp76HfpLkYsHKCFLIhvc7435pTjb3meI8x6TZK968fBqj5I4hoW7EqT3mtGI+Zs8Sw2piG37d8xmPmrCNYcLkGmkEfY7JcThbsPaNfY+87UF4r5H0p74feoO/3zYWX73gMqrHXySDHdD3e9zE1j4PkyKEjgHwMS6/jR7B8w1mgyb9L6iwMzmFHDkrP5CJfHvVrufGYOQvSKM7mmdBopBPJPJ4tfl/zyuTQs2BQvvzJX9xAJWV0SPlpbU1kB/A0efqsZOvzC3DE+wKYhQU/tPPIVVPPWYeRwq004iuHGOGNdutsDTSX78cSeWSwZQb4al89HnkkpunrjgrKyKD8FXvo/1WpIJdpbJkl/x0pH0Y3f4zlkMONvI1n0wz5Q1WQr8TD8DWnM51avACrvR82NJiw0v/DRsv8068UYeZm5cORNNqc1ViJnqr3Hf/BIA88jZ6oJ30wUr658DrxKgYGO3Y6yAB5ZFr5Ofxkb3ETCiEMziFrAHL9vjI8tWE5jviNys74/RPoh1P4+APpM+z4qTN8n7RPfIzl4ifzoISvrZTRz82rGhi9nIElT/ZTtf8Bgwb4vo7fPBMazUwcuTIH8H6VLtTLhTB1JatbsWqlEOx+WgI89Zz3K+2gz6W3JEZ6LoOPMAQeC1tn+9XeNfmcyQbkYoCq62qBE69i4KBXcQrjsarBNzdgwCsvYLwy8tiYywYgB8ool3KcxCP3ar9yAvmY2qryujuSR+0nrTYljQwueCZPeF6loOANPptXYXXQkbjGtMU+1L1GSbWv9QOM9BrVD0/8PgfLn1kOyCOTpxYPlF5D7lgllRoJl+sXpq85nUd6bZDKpJQfpQRKOg6UEdjgf8fB37dmK98ieDxYdcdWzNTMxFb5A/eWWfIlg7xnSMdBI+878muFcj7JqcUDg5wrEmj81Bl+9diQjotJC4BXXsD4NnudDP44BNvTgEEDcMT7PiHVRUflh/8wwuDcgBH9YsSmZmvWPrwjlcqn8n544tAW5DyVJX8FlYMth55AP/nrI2l0ZQIwewaQdwSn/GsDJ+1HToMBIrDGebVcw4g7Zkp1fhoNNOtyseTqI9jv/72S/9fxk4C5ykh1A/o9eRhbcuT93bkaMzatwvg7Vkn1vZfLI7I5W9q9pnnY9WqnkWtY9lUqpjbcvAqrvV/xyeTHzPs15wfSc5z1FLBkg+8r5eWT5McDS7Al6OMReCxMWCnX1DX0nA3IxQCsxoTZX/p2cdkTOLwpp30e+8uewJbZy31fh+dIx9SAQQO8J5dJb1bS7V81aEmDX1tKxmOV92t65XEZiScO+UaVNXfmYclPqzC+gevuTEOSmpkog7ix6xCxqUnjp87AkR/g/XrY2/6BVKsZ8LgFbBFcwPPXwn0EUPEa1e/JwwE1zhp5tNH7nN4xEzl+97Hfk1sw9wPpuNJcvgA5m1ZhvBz0jzw1Aa8O6PjXnPag63mD2NRsqvZx4mMs/8G/1Afe0orlG07JH36k42CV9zsuv8f7REPvW4H7W7UJ3ud4Qp70uhf0PaPJ9x3ptQKNXp/gjlVynb5yjGVh+Wx5Orrmvk56X2vFj3pqHgd5y4BjXqqL7uzXMGoc53FuRH6JAzU23wIozRFn0iIr1SA2UyfIP24PWAClObql6ZDSVSc2N9NWzNRIJ7bVn1cb2NLoV4sUji7aK2CxXhKbVdFptBiQ0FdsjiwnXsXAy5djbnPnsd3cyvl7w5i77AQ8jhqxWRWNIQ7alOY80EStF6nzODM4E7U7Bmci6Xj3fb3f3EUnlIVRZoh/R0QUkhicwwSDMxEREVHnitTgzBpnIiIiIiIVGJyJiIiIiFRgcCYiIiIiUoHBmYiIiIhIBQZnIiIiIiIVGJyJiIiIiFRgcCYiIiIiUoHBmYiIiIhIBQZnIiIiIiIVGJyJiIiIiFRgcCYiIiIiUoHBmYiIiIhIBQZnIiIiIiIVGJyJiIiIiFRgcCYiIiIiUoHBmYiIiIhIBQZnIiIiIiIVGJyJiIiIiFRgcCYiIiIiUoHBmYiIiIhIBQZnIiIiIiIVGJyJiIiIiFRgcCYiIiIiUoHBmYiIiIhIhYgLzlqtDg6HQ2wmIiIiog7icDig1erE5rAXccHZYDKjsrJKbCYiIiKiDlJZWQWDySw2h72IDM7QaHDp0iWxi4iIiIja2aVLlwCNJiKDs2bN5j0esVE0dtRQsSnk1VZXwm6tRYw5BlpdxH0+ICIiIgopbpcbddY6GM2xiI1PFLtD3vadB8SmeiI2OAOAx+OG026HB03eRSIiIqLwEmLxRqPRQG80QqMJzwHLqA/ORERERERqqAnO4fmRgIiIiIiogzE4ExERERGpwOBMRERERKQCgzMRERERkQoMzkREREREKjA4ExERERGpwOBMRERERKSCquBssznEJiIiIiKiiKA266oKzkUl5WITEREREVFEUJt1VQXnn04WorKqTmwmIiIiIgprlVV1+OlkodgclKrg7HS58c/9P+HMuRLVQ9lERERERKHKZnPgzLkS/HP/T3C63GJ3UJo1m/d4xEYiIiIiIgqkasSZiIiIiCjaMTgTEREREanA4ExEREREpML/Byl90kEPCo/NAAAAAElFTkSuQmCC;" vertex="1" parent="1">
          <mxGeometry x="66" y="630" width="718" height="536" as="geometry" />
        </mxCell>
      </root>
    </mxGraphModel>
  </diagram>
</mxfile>
